<?xml version="1.0" standalone="no"?>
<!DOCTYPE svg PUBLIC "-//W3C//DTD SVG 20010904//EN"
 "http://www.w3.org/TR/2001/REC-SVG-20010904/DTD/svg10.dtd">
<svg version="1.0" xmlns="http://www.w3.org/2000/svg"
 width="968.000000pt" height="813.000000pt" viewBox="0 0 968.000000 813.000000"
 preserveAspectRatio="xMidYMid meet">
<metadata>
Created by potrace 1.16, written by Peter Selinger 2001-2019
</metadata>
<g transform="translate(0.000000,813.000000) scale(0.100000,-0.100000)"
fill="#000000" stroke="none">
<path d="M2 6373 c1 -967 5 -1715 9 -1663 3 52 11 115 17 140 6 25 11 67 12
93 0 27 5 57 11 68 5 11 13 52 15 92 3 40 9 81 14 92 4 11 13 40 20 65 7 25
21 70 32 100 23 63 36 128 47 220 9 75 37 162 90 275 21 44 44 96 51 115 8 19
22 49 32 65 9 17 29 51 43 77 13 26 29 49 35 53 5 3 10 15 10 26 0 10 3 19 8
19 4 0 18 17 32 38 14 20 30 43 36 51 27 33 71 84 95 109 14 15 42 61 63 102
33 65 84 143 116 175 6 6 25 25 42 43 18 17 40 32 48 32 9 0 27 11 40 25 13
14 29 25 35 25 6 0 22 11 35 25 13 14 30 25 37 25 8 0 36 21 63 46 27 26 58
53 70 61 11 8 20 21 20 29 0 8 3 14 8 14 4 0 34 27 67 60 33 33 65 60 72 60 7
0 32 14 56 30 25 17 48 30 51 30 3 0 29 11 58 25 28 14 57 25 64 25 6 0 14 7
18 15 3 8 11 15 19 15 18 0 80 68 96 105 7 16 21 35 32 43 10 7 19 19 19 27 0
14 71 75 87 75 6 0 18 9 27 19 10 11 32 23 48 27 17 3 54 18 82 32 57 30 106
32 491 22 l190 -5 70 39 c169 95 248 122 445 157 30 5 64 14 75 19 11 5 49 14
85 20 36 6 74 15 85 20 32 15 171 30 305 33 69 1 132 6 140 12 8 5 75 9 148
10 84 0 135 4 140 11 4 6 22 16 39 22 40 13 109 60 142 96 14 14 34 26 46 26
12 0 30 7 41 15 10 8 37 15 59 15 22 1 60 5 85 9 25 5 -993 9 -2262 10 l-2308
1 2 -1757z"/>
<path d="M5200 8118 c19 -5 50 -12 68 -15 17 -3 32 -9 32 -14 0 -5 9 -9 20 -9
18 0 57 -17 70 -30 3 -3 23 -15 45 -26 34 -19 64 -23 214 -29 95 -4 199 -11
230 -17 31 -5 74 -12 96 -15 22 -3 43 -10 46 -15 3 -5 46 -11 95 -14 81 -4
281 -44 329 -64 11 -5 52 -11 90 -13 68 -3 217 -43 223 -59 2 -4 14 -8 26 -8
12 0 26 -4 32 -9 5 -5 72 -12 149 -16 77 -4 160 -13 185 -20 84 -26 128 -44
165 -70 21 -14 43 -25 50 -25 7 0 23 -10 37 -23 34 -31 95 -67 116 -67 9 0 28
-9 42 -20 14 -11 31 -20 37 -20 7 0 18 -9 25 -20 7 -11 18 -20 24 -20 6 0 19
-9 29 -20 10 -11 22 -20 27 -20 5 0 29 -13 53 -30 24 -16 48 -30 54 -30 23 0
180 -146 202 -187 8 -15 29 -43 47 -62 17 -20 32 -39 32 -43 0 -12 63 -102 77
-111 7 -5 19 -21 26 -37 15 -34 124 -159 147 -169 20 -7 100 -98 100 -112 0
-6 11 -25 25 -43 14 -18 25 -38 25 -44 0 -6 11 -23 24 -39 13 -15 26 -38 30
-50 4 -12 25 -38 47 -56 21 -19 39 -38 39 -43 0 -9 47 -41 83 -56 9 -4 20 -14
23 -23 4 -8 12 -15 18 -15 20 0 53 -42 78 -100 20 -45 24 -67 20 -122 -5 -71
17 -162 63 -263 31 -68 36 -101 33 -230 -6 -242 -4 -269 19 -325 31 -75 38
-114 40 -235 2 -128 13 -207 32 -242 6 -10 18 -36 27 -58 10 -22 22 -47 29
-55 6 -8 26 -51 45 -95 44 -103 114 -211 195 -301 83 -92 143 -168 155 -197
15 -35 55 -98 128 -201 17 -26 32 -52 32 -59 0 -7 7 -21 15 -31 13 -17 15 242
15 2167 l0 2187 -2257 -1 c-1489 -1 -2246 -4 -2223 -11z"/>
<path d="M7770 6470 c0 -10 68 -25 77 -16 6 6 -40 26 -63 26 -8 0 -14 -4 -14
-10z"/>
<path d="M7910 6421 c0 -6 -7 -11 -17 -11 -15 0 -15 -1 0 -18 13 -14 14 -21 5
-30 -7 -7 -18 -12 -25 -12 -23 0 -14 -19 17 -35 17 -9 30 -20 30 -25 0 -5 11
-12 24 -16 26 -6 38 -24 40 -62 2 -26 -20 -42 -58 -42 -30 0 -35 -24 -8 -39
11 -7 13 -13 7 -18 -6 -5 -10 -15 -10 -23 0 -8 -3 -18 -8 -21 -5 -4 3 -9 18
-13 26 -7 27 -7 10 -33 -17 -26 -17 -27 9 -45 31 -24 35 -58 6 -58 -31 0 -24
-18 13 -33 17 -8 39 -22 47 -32 14 -17 13 -17 -10 -10 -14 4 -32 13 -40 20 -8
7 -27 15 -42 19 -39 9 -62 34 -47 53 7 7 18 12 26 9 17 -7 17 24 0 44 -14 17
-52 40 -67 40 -5 0 -10 -8 -10 -17 0 -9 -7 -25 -17 -35 -15 -17 -15 -18 3 -18
18 0 51 -37 41 -46 -7 -7 -68 28 -74 42 -11 29 -19 12 -18 -35 1 -27 7 -56 14
-65 7 -8 10 -20 6 -26 -3 -5 -2 -10 4 -10 6 0 7 -7 4 -17 -4 -9 -2 -14 3 -10
6 3 30 -13 55 -35 24 -22 57 -48 73 -57 16 -9 33 -27 38 -40 7 -21 6 -23 -17
-19 -32 7 -48 -13 -39 -47 6 -25 5 -27 -22 -24 -16 2 -34 7 -41 12 -7 5 -22 7
-35 6 -13 -2 -37 6 -53 17 -51 35 -60 35 -59 1 1 -20 10 -39 30 -55 16 -14 28
-31 26 -39 -5 -23 38 -71 59 -66 14 4 18 1 13 -10 -3 -9 3 -26 15 -38 12 -13
21 -28 21 -34 0 -15 69 -87 78 -81 11 7 12 -65 1 -86 -11 -21 -29 -24 -29 -5
0 7 -12 24 -26 36 -20 17 -28 20 -34 10 -5 -7 -6 -19 -3 -27 3 -8 0 -18 -8
-23 -11 -7 -11 -9 -1 -9 7 0 11 -4 7 -9 -3 -5 1 -15 8 -23 7 -7 18 -22 25 -33
10 -18 11 -19 12 -2 0 18 25 19 25 1 1 -5 6 -19 14 -32 9 -18 10 -27 1 -38 -7
-7 -10 -21 -6 -29 10 -26 -4 -43 -34 -41 -28 2 -28 2 -24 -51 3 -30 1 -53 -4
-53 -20 0 -21 -31 -1 -51 13 -13 18 -27 14 -39 -3 -11 1 -30 11 -45 14 -22 15
-25 1 -25 -9 0 -19 -5 -22 -10 -8 -14 13 -80 34 -103 8 -11 16 -24 17 -30 0
-7 2 -18 2 -24 1 -7 9 -13 18 -13 10 0 14 -6 11 -14 -3 -8 3 -26 14 -39 10
-14 19 -34 19 -44 0 -11 13 -34 30 -53 16 -18 32 -42 36 -52 3 -10 14 -18 24
-18 11 0 26 -12 34 -28 8 -16 22 -34 30 -41 9 -8 16 -22 16 -32 0 -11 9 -28
20 -39 11 -11 16 -20 10 -20 -5 0 -10 -4 -10 -9 0 -6 16 -7 35 -4 35 6 44 -4
24 -24 -13 -13 -4 -33 16 -33 7 0 15 -10 19 -23 3 -13 16 -28 28 -34 31 -14
57 -61 40 -72 -9 -5 -7 -12 8 -26 11 -10 18 -25 15 -33 -6 -17 31 -72 50 -72
15 0 45 -43 45 -65 0 -8 9 -23 20 -32 11 -10 20 -23 20 -29 0 -7 14 -17 31
-23 41 -14 38 -54 -3 -59 -16 -2 -28 -8 -28 -14 0 -6 -6 -19 -14 -27 -13 -14
-3 -25 80 -93 52 -43 98 -78 104 -78 5 0 14 -8 19 -19 6 -10 26 -28 46 -40 35
-20 35 -20 47 -1 17 27 34 25 53 -4 21 -32 17 -103 -5 -97 -8 3 -27 4 -42 3
-19 -1 -31 6 -39 19 -14 26 -84 91 -113 104 -12 6 -36 25 -53 44 -26 30 -36
34 -79 35 -36 1 -49 5 -49 16 0 25 -25 33 -45 15 -46 -41 -29 -84 53 -134 42
-25 45 -36 18 -50 -15 -8 -24 -5 -46 15 -15 14 -33 23 -41 20 -7 -3 -16 -1
-19 4 -11 18 -35 11 -28 -7 4 -10 9 -20 12 -23 3 -3 14 -15 24 -27 19 -22 19
-22 -22 -33 -39 -10 -57 -30 -28 -30 14 0 47 -31 47 -43 0 -4 -9 -7 -20 -7
-11 0 -24 -8 -27 -17 -16 -41 -53 -54 -53 -19 0 8 -16 17 -35 20 -24 5 -35 12
-35 24 0 20 -47 45 -56 31 -3 -6 -11 -5 -20 2 -8 6 -17 10 -19 7 -6 -5 39 -51
99 -102 25 -21 44 -42 41 -46 -3 -5 0 -10 7 -12 12 -4 3 -28 -12 -28 -5 0 -16
7 -25 17 -12 11 -19 13 -24 5 -5 -8 -15 -7 -35 3 -40 21 -43 19 -16 -10 27
-28 24 -37 -9 -28 -17 4 -19 8 -9 14 10 7 9 9 -5 9 -10 0 -15 5 -12 10 7 12
-5 13 -23 1 -10 -6 -10 -11 3 -21 11 -9 14 -22 10 -37 -3 -15 0 -30 10 -39 20
-21 19 -37 -2 -31 -32 8 -38 9 -54 8 -22 -1 -33 -32 -17 -43 17 -10 -7 -28
-38 -28 -17 0 -25 10 -36 44 -8 25 -11 44 -5 43 20 -4 15 19 -7 35 -23 17 -24
17 -19 -2 7 -25 -15 -45 -51 -47 -18 -1 -24 2 -16 7 7 4 9 13 5 20 -6 10 -10
9 -16 -3 -6 -9 -17 -13 -29 -10 -11 3 -20 0 -20 -6 0 -6 4 -11 9 -11 5 0 13
-9 16 -20 4 -11 10 -18 14 -16 4 3 7 -5 7 -16 0 -16 -9 -11 -44 26 -24 25 -45
46 -48 46 -3 0 -18 10 -34 22 -35 26 -44 21 -30 -16 5 -15 8 -32 4 -37 -3 -5
2 -12 11 -15 9 -4 34 -34 56 -67 65 -102 32 -92 -82 24 -61 62 -103 99 -106
91 -3 -7 -1 -18 5 -25 11 -14 8 -63 -4 -60 -23 4 -57 22 -45 22 11 1 9 5 -5
15 -10 8 -16 18 -12 22 10 10 -62 65 -76 57 -6 -3 -8 -3 -4 2 4 4 2 15 -5 23
-10 13 -9 15 5 9 12 -4 15 -2 11 9 -10 28 12 13 37 -24 25 -38 42 -54 48 -47
2 2 -4 15 -13 29 -11 17 -13 26 -6 26 7 0 9 5 6 11 -4 6 -9 8 -12 5 -7 -7 -64
24 -79 43 -8 10 -15 11 -31 3 -20 -11 -33 -7 -33 10 0 5 3 7 8 5 4 -3 21 1 37
7 l30 13 -42 4 c-34 4 -43 1 -43 -11 0 -8 -11 5 -25 29 -14 23 -25 49 -25 57
0 8 -11 19 -24 24 -28 10 -43 30 -24 30 7 1 0 8 -15 16 -15 8 -32 27 -38 41
-9 24 -11 25 -25 11 -12 -12 -13 -20 -6 -35 8 -15 7 -22 -9 -31 -19 -12 -19
-14 11 -51 37 -46 48 -112 23 -133 -13 -10 -17 -10 -20 0 -3 6 -12 12 -21 12
-14 0 -14 2 -3 9 11 7 10 10 -5 15 -11 3 -26 17 -34 30 -47 75 -72 106 -84
106 -7 0 -31 17 -52 37 -21 20 -58 49 -82 64 -40 25 -40 48 1 27 19 -10 37 -3
37 13 0 6 -5 7 -11 3 -8 -5 -8 -1 0 14 9 17 7 25 -11 41 -30 29 -94 72 -110
75 -7 2 -24 8 -38 13 -14 6 -29 8 -34 6 -4 -3 -5 4 -1 16 5 17 2 21 -14 21
-28 0 -41 49 -17 62 16 9 16 11 0 23 -13 9 -26 10 -42 4 -30 -11 -45 -11 -38
0 3 5 -10 12 -29 15 -36 7 -45 20 -21 29 7 3 23 -1 34 -8 11 -8 48 -17 82 -20
34 -3 72 -13 85 -21 12 -8 33 -13 46 -12 15 2 23 -2 21 -9 -3 -17 9 -16 35 2
l22 15 -22 24 c-12 12 -32 28 -44 35 -13 6 -23 17 -23 23 0 6 6 6 16 -3 14
-11 15 -10 12 11 -1 13 -9 25 -17 28 -9 3 -11 0 -5 -9 6 -11 5 -12 -7 -3 -8 7
-33 18 -56 25 -42 12 -63 37 -23 26 11 -3 20 -1 20 3 0 5 -17 12 -37 16 -21 4
-42 10 -48 14 -5 5 -30 5 -53 0 -24 -4 -53 -5 -64 -2 -15 4 -19 2 -14 -7 5 -8
0 -14 -13 -18 -12 -3 -21 -9 -21 -13 0 -4 -14 -13 -31 -20 -24 -10 -29 -18
-25 -34 3 -11 1 -25 -5 -32 -7 -8 -7 -14 1 -19 15 -9 12 -25 -5 -25 -23 0 -18
-46 6 -64 l21 -14 -20 -11 c-12 -6 -30 -11 -41 -11 -28 0 -52 -11 -45 -21 3
-5 23 -9 44 -9 27 0 47 -7 65 -24 30 -28 26 -32 -36 -31 -26 0 -52 -6 -58 -12
-9 -10 -2 -16 34 -25 25 -7 44 -17 41 -23 -7 -18 25 -45 43 -36 10 6 23 4 34
-4 18 -13 18 -14 -2 -25 -20 -10 -20 -12 -5 -35 9 -14 20 -23 24 -20 5 3 11 1
15 -5 3 -5 16 -10 28 -10 26 -1 59 -26 76 -59 7 -12 18 -20 25 -18 8 3 29 -4
47 -16 19 -11 52 -30 74 -41 27 -14 39 -27 37 -39 -3 -18 47 -92 56 -82 3 2
20 -17 38 -45 49 -74 50 -77 29 -60 -17 14 -18 14 -7 -7 9 -17 9 -22 -3 -27
-10 -3 -43 22 -95 74 -43 44 -84 80 -90 80 -5 0 -29 19 -52 43 -23 24 -43 37
-45 30 -3 -8 -14 -6 -36 8 -35 21 -62 24 -72 9 -7 -11 5 -61 14 -57 3 2 14 -4
24 -15 9 -10 13 -18 8 -18 -6 0 -12 4 -15 9 -3 5 -15 7 -26 4 -11 -3 -27 0
-35 7 -9 7 -19 10 -23 6 -4 -4 4 -16 18 -27 41 -32 71 -61 67 -66 -2 -2 -16 1
-30 6 -35 14 -41 2 -15 -27 18 -20 19 -24 6 -19 -12 4 -18 1 -18 -8 0 -18 -42
-20 -70 -3 -28 18 -37 2 -13 -25 11 -12 24 -33 28 -47 5 -21 -1 -17 -40 23
-25 26 -52 47 -59 47 -8 0 -19 7 -26 15 -7 8 -26 15 -43 15 -29 0 -29 -1 -14
-18 10 -10 17 -22 17 -25 0 -4 19 -26 41 -49 57 -58 77 -90 61 -96 -6 -2 -12
-15 -12 -28 0 -29 -11 -31 -28 -4 -16 27 -34 16 -26 -16 3 -13 2 -24 -2 -24
-18 1 -46 29 -39 39 3 6 1 11 -4 11 -6 0 -11 6 -11 14 0 8 -10 14 -25 14 -20
-1 -23 -3 -14 -14 6 -8 14 -12 18 -10 3 2 7 -6 7 -19 1 -17 -2 -22 -13 -18
-13 5 -13 2 -4 -15 17 -32 -14 -29 -35 3 -9 14 -24 25 -34 25 -16 0 -36 48
-31 74 1 5 -6 3 -15 -5 -12 -9 -15 -9 -10 -1 5 8 -1 12 -18 12 -14 0 -26 6
-26 13 0 6 -18 29 -40 50 -23 21 -39 41 -36 45 3 4 -4 8 -14 9 -23 2 -85 62
-94 91 -8 25 -71 82 -91 82 -8 0 -19 9 -25 20 -6 11 -17 20 -24 20 -8 0 -16 6
-19 13 -8 21 -70 48 -82 36 -6 -6 -5 -13 5 -19 12 -8 12 -10 1 -10 -11 0 -11
-3 2 -18 11 -12 13 -22 7 -32 -5 -8 -10 -25 -10 -37 0 -17 -4 -21 -17 -16 -12
5 -14 3 -8 -7 5 -8 4 -11 -3 -6 -8 4 -8 15 -2 31 12 31 4 53 -29 82 -30 26
-56 30 -47 8 12 -32 -11 -12 -56 49 -27 35 -48 67 -48 70 0 16 28 3 33 -14 3
-13 10 -18 21 -14 10 4 16 1 16 -8 0 -8 7 -15 15 -15 13 0 13 3 2 16 -7 9 -26
44 -41 79 -15 34 -38 73 -51 86 -30 30 -57 83 -47 90 12 7 40 -32 92 -127 23
-43 52 -85 64 -92 12 -8 27 -30 34 -49 14 -39 40 -54 49 -29 4 9 -1 21 -12 29
-15 11 -19 28 -19 74 -1 56 -3 61 -43 100 l-43 40 6 -30 c4 -20 2 -30 -5 -30
-7 0 -10 4 -6 9 3 5 -6 26 -20 47 -14 20 -25 42 -25 49 0 7 -7 15 -15 19 -8 3
-15 13 -15 22 0 10 -11 32 -25 49 -13 18 -22 35 -20 37 3 2 1 19 -4 36 -7 21
-6 34 1 38 7 4 8 2 4 -4 -4 -7 -1 -12 9 -12 9 0 13 5 10 10 -9 15 23 12 49 -5
26 -17 53 -12 53 10 0 8 -4 15 -9 15 -4 0 -8 14 -8 30 0 17 -5 30 -13 30 -7 0
-18 9 -25 20 -10 17 -10 21 3 26 8 4 15 14 15 25 0 13 -10 20 -35 25 -37 7
-46 28 -22 53 10 11 10 14 0 18 -16 6 -17 24 -2 20 27 -5 16 20 -17 41 -26 17
-34 28 -29 42 5 15 0 21 -19 26 -17 4 -26 13 -26 25 0 10 -4 19 -9 19 -5 0
-12 14 -16 30 -4 17 -11 30 -16 30 -5 0 -33 23 -61 50 -29 28 -58 48 -64 46
-7 -3 -37 17 -66 44 -56 53 -71 61 -61 33 6 -14 2 -13 -21 5 -16 12 -36 22
-45 22 -9 0 -27 7 -39 16 -14 10 -32 14 -48 10 -13 -4 -34 -1 -47 6 -34 18
-46 20 -132 19 -102 -1 -107 -1 -125 -15 -40 -30 -85 -47 -62 -24 24 24 11 28
-28 8 -48 -24 -54 -25 -46 -3 6 15 4 15 -14 -2 -18 -16 -20 -16 -20 -2 0 21
-9 21 -62 0 -51 -20 -60 -30 -94 -105 -31 -67 -60 -80 -50 -23 6 28 4 35 -9
35 -9 0 -18 -12 -22 -30 -3 -16 -11 -30 -18 -30 -16 0 -65 -43 -65 -58 0 -6
-20 -31 -44 -54 -43 -42 -60 -74 -60 -113 0 -11 -9 -26 -19 -34 -19 -13 -19
-15 -3 -27 16 -12 16 -13 -3 -24 -12 -6 -21 -20 -21 -32 0 -17 -2 -18 -15 -8
-13 10 -15 9 -15 -8 0 -12 5 -24 10 -27 8 -5 8 -11 0 -20 -8 -9 -8 -15 0 -20
5 -3 10 -19 10 -36 0 -19 5 -29 15 -29 9 0 12 -6 9 -15 -4 -8 -12 -15 -20 -15
-8 0 -14 -4 -14 -10 0 -5 -13 -10 -30 -10 -23 0 -30 -4 -30 -20 0 -12 7 -20
18 -21 58 -4 139 -27 99 -28 -15 -1 -16 -4 -7 -21 11 -21 11 -21 -57 -45 -28
-10 -12 -23 17 -15 36 10 47 -3 23 -27 -20 -20 -19 -53 2 -53 22 0 27 18 8 23
-10 3 -3 4 15 4 22 -1 37 4 43 16 11 18 29 23 29 7 0 -5 -16 -28 -36 -50 -35
-38 -41 -69 -16 -78 6 -2 12 3 12 11 0 8 7 17 15 21 8 3 15 1 15 -5 0 -6 7 -8
16 -5 22 8 42 -20 36 -51 -3 -18 -9 -22 -23 -18 -15 5 -19 1 -19 -17 0 -13
-11 -39 -25 -58 -29 -39 -35 -93 -10 -83 14 5 13 -1 -2 -43 -12 -32 -16 -64
-13 -94 5 -49 10 -47 30 17 15 48 35 47 26 -1 -7 -38 7 -68 19 -39 6 16 11 42
35 203 4 30 15 75 24 100 9 25 16 54 16 65 0 11 8 29 17 40 15 19 15 19 9 1
-24 -69 -40 -196 -25 -196 5 0 9 8 9 18 0 11 9 27 20 37 23 21 24 17 9 -22 -6
-15 -12 -56 -14 -91 -2 -35 -9 -70 -16 -78 -7 -9 -14 -44 -14 -80 -1 -35 -4
-67 -8 -70 -4 -4 -7 -2 -7 5 0 7 -4 10 -9 6 -6 -3 -15 4 -21 15 -16 30 -28 24
-35 -17 -4 -21 -16 -62 -27 -90 -11 -29 -18 -60 -14 -68 6 -16 4 -21 -27 -81
-15 -28 -15 -33 -1 -52 8 -12 12 -28 8 -34 -6 -9 -10 -5 -15 12 l-6 25 -12
-29 c-7 -17 -20 -36 -31 -43 -15 -11 -18 -23 -15 -70 3 -57 -15 -108 -30 -83
-4 6 -1 17 5 25 10 12 9 15 -3 15 -19 0 -28 36 -16 67 5 13 9 39 9 58 0 32 -1
33 -46 37 -37 3 -48 0 -56 -15 -5 -10 -7 -25 -4 -33 7 -18 -19 -61 -45 -75
-27 -14 -23 -2 7 26 27 25 25 57 -2 34 -20 -17 -19 15 2 35 14 15 13 16 -9 16
-14 0 -27 -7 -31 -15 -3 -8 -10 -15 -17 -15 -6 0 -9 7 -5 15 3 9 0 15 -9 15
-15 0 -16 -24 -3 -45 3 -6 -9 -20 -28 -33 -19 -12 -34 -18 -34 -12 0 5 -4 10
-10 10 -5 0 -10 -5 -10 -12 0 -6 -11 -25 -24 -42 -13 -18 -26 -40 -29 -51 -4
-17 -5 -17 -6 -2 -1 21 -11 22 -37 2 -27 -20 -32 -19 -36 10 -3 24 -3 24 -28
5 -21 -16 -22 -20 -11 -34 8 -9 11 -19 8 -23 -4 -3 -9 2 -13 11 -9 22 -26 20
-22 -3 2 -10 -6 -29 -17 -41 -22 -25 -23 -29 -3 -42 9 -7 7 -8 -9 -5 -17 4
-28 -2 -44 -24 -11 -16 -21 -38 -22 -49 -1 -11 -6 -20 -12 -20 -5 0 -4 -4 4
-9 8 -5 21 -7 29 -3 9 3 13 0 10 -8 -2 -7 -15 -15 -28 -17 -28 -4 -50 -21 -50
-38 0 -7 -7 -15 -15 -19 -12 -4 -14 0 -9 22 4 15 10 32 14 37 4 6 7 17 7 25 0
8 4 32 8 52 8 43 9 42 -34 27 -18 -6 -31 -18 -31 -27 0 -14 -2 -14 -9 -3 -5 8
-3 24 5 40 21 39 18 54 -8 47 -13 -3 -28 -6 -34 -6 -6 0 -21 -19 -34 -43 -20
-36 -75 -97 -88 -97 -2 0 7 19 20 43 24 42 26 67 7 67 -18 0 -69 -43 -95 -81
-24 -35 -61 -53 -82 -40 -6 3 -9 25 -8 49 2 31 -1 41 -11 38 -7 -3 -15 0 -19
6 -4 6 -3 8 3 5 12 -8 26 20 17 34 -3 5 1 9 9 9 7 0 24 11 36 24 19 20 21 28
12 45 -7 12 -16 21 -21 21 -9 0 -11 -6 -14 -42 -2 -19 -28 -49 -53 -58 -14 -6
-20 -15 -17 -27 8 -28 -27 -61 -66 -65 -29 -2 -35 0 -35 17 0 11 -6 20 -12 20
-7 0 -13 4 -12 9 0 5 -5 12 -12 17 -9 5 -10 11 -2 21 6 7 12 34 14 60 3 36 1
48 -11 51 -17 3 -70 -48 -70 -69 0 -14 -29 -20 -31 -6 0 4 -2 15 -4 25 -2 9 3
24 11 31 13 14 19 36 10 36 -3 0 -16 -4 -30 -10 -22 -8 -26 -7 -26 9 0 15 -8
18 -50 17 -33 -1 -50 -5 -50 -13 0 -7 -7 -13 -15 -13 -8 0 -15 -4 -15 -9 0 -8
-47 -23 -80 -25 -8 -1 -32 -7 -53 -15 -21 -7 -41 -10 -44 -7 -3 3 -15 1 -25
-5 -16 -8 -24 -7 -36 5 -21 21 -20 76 3 88 11 7 14 13 6 17 -7 5 -8 17 -2 38
5 17 6 34 3 38 -10 10 -8 95 2 95 4 0 6 9 3 21 -5 20 25 93 44 105 15 9 10 22
-11 29 -14 4 -30 -2 -51 -19 -17 -15 -35 -24 -40 -20 -5 3 -9 -3 -10 -13 0
-16 -1 -16 -9 2 -6 14 -9 16 -10 5 -2 -8 -2 -19 -1 -23 1 -4 -9 -18 -22 -30
-14 -12 -28 -33 -32 -47 l-7 -25 26 27 c49 51 109 46 68 -6 -13 -18 -22 -22
-25 -14 -3 7 -3 -6 -1 -30 2 -24 6 -48 9 -53 4 -5 -3 -9 -14 -9 -14 0 -19 -5
-16 -20 2 -11 -5 -30 -15 -42 -11 -13 -19 -17 -20 -10 0 20 -27 14 -33 -8 -4
-17 -10 -20 -33 -14 -19 5 -25 4 -20 -5 4 -6 2 -11 -4 -11 -6 0 -8 -5 -5 -10
5 -8 11 -7 21 1 13 11 13 9 3 -15 l-13 -27 -17 22 c-9 12 -21 19 -27 15 -6 -3
-16 0 -24 7 -7 8 -23 13 -36 12 -16 -1 -22 3 -20 14 2 9 11 15 21 15 20 -2 20
-2 5 31 -6 14 -18 25 -27 26 -10 0 -12 2 -3 6 14 5 16 29 3 37 -14 9 -41 -4
-41 -20 0 -8 -4 -13 -9 -12 -5 2 -25 -12 -44 -29 -32 -30 -35 -31 -40 -13 -3
11 1 24 9 31 8 6 14 18 14 27 0 8 3 12 7 9 4 -4 13 5 20 20 7 16 17 35 21 43
27 46 41 88 38 113 -2 19 2 31 14 37 18 10 33 57 20 65 -3 2 -14 -9 -24 -26
-14 -24 -36 -39 -36 -25 0 11 28 55 32 50 3 -2 8 7 10 21 l5 26 -23 -22 c-13
-12 -24 -28 -24 -34 0 -7 -18 -15 -41 -19 -32 -5 -42 -12 -50 -34 -5 -16 -24
-36 -42 -46 -18 -10 -55 -41 -83 -68 -38 -37 -58 -49 -75 -46 -13 2 -34 -5
-46 -16 -24 -20 -48 -80 -39 -95 3 -5 -1 -11 -9 -15 -8 -3 -15 -14 -15 -25 0
-11 -7 -26 -15 -34 -8 -8 -11 -17 -8 -21 4 -3 1 -6 -5 -6 -20 0 -35 -39 -21
-56 7 -9 8 -14 1 -14 -6 0 -12 -10 -14 -23 -2 -12 -9 -21 -16 -19 -17 3 -15
-15 3 -22 10 -3 15 -18 15 -38 -1 -54 7 -149 14 -155 12 -12 6 -43 -8 -43 -18
0 -26 31 -26 105 0 41 -6 69 -17 85 -10 14 -16 37 -14 52 3 35 -8 56 -20 37
-7 -11 -9 -10 -9 3 0 9 5 18 11 20 6 2 8 14 4 31 -7 26 -9 27 -24 12 -20 -17
-31 -19 -31 -5 0 6 7 10 16 10 13 0 15 7 10 31 -3 17 -2 38 3 47 15 30 23 74
11 67 -9 -6 -15 29 -11 64 2 7 -3 11 -11 9 -19 -7 -41 41 -27 58 9 11 8 14 -1
14 -9 0 -10 3 -1 13 6 8 9 16 7 18 -3 3 10 9 29 15 33 10 33 10 24 -15 -8 -23
-8 -24 5 -8 14 18 32 24 21 7 -11 -18 5 -11 33 15 16 15 29 21 33 14 4 -6 6 2
6 17 0 16 -2 23 -4 17 -7 -20 -21 -15 -28 8 -6 17 -9 19 -16 8 -7 -12 -9 -11
-9 1 0 9 5 21 12 28 9 9 8 12 -5 12 -19 0 -23 15 -7 25 6 3 10 15 10 26 0 11
5 17 10 14 6 -3 7 -18 4 -32 -5 -18 -3 -24 5 -19 6 4 11 13 11 20 0 8 7 19 15
26 14 11 14 10 6 -14 -6 -14 -7 -26 -1 -26 4 0 7 -15 5 -32 l-4 -33 27 42 c15
24 32 43 39 43 21 0 25 -20 9 -45 -18 -27 -21 -39 -7 -30 6 3 6 -8 1 -27 -20
-73 -20 -86 1 -81 25 7 61 52 52 66 -3 5 -1 7 5 3 17 -10 23 10 7 24 -23 19
-18 45 13 77 15 15 33 36 40 45 13 16 11 16 -19 8 -18 -5 -36 -15 -41 -22 -5
-9 -8 -6 -8 9 0 12 -2 27 -5 35 -3 8 11 23 34 38 22 13 38 27 35 31 -2 4 7 16
20 27 20 15 24 25 20 52 -4 22 -2 30 6 25 6 -4 23 1 38 11 15 10 30 19 35 20
4 1 10 2 15 3 4 0 19 12 33 25 24 22 62 46 72 46 3 0 -9 -15 -26 -33 -18 -19
-35 -32 -39 -30 -3 2 -21 -10 -39 -27 -19 -16 -37 -30 -41 -30 -3 0 -10 -9
-13 -20 -4 -11 -18 -34 -33 -51 l-26 -31 43 23 c24 13 55 30 69 38 15 8 35 22
46 33 11 10 27 18 35 18 9 0 29 7 45 15 16 9 35 14 42 11 7 -3 21 3 32 12 12
11 34 17 56 16 34 -2 35 0 30 23 -8 31 10 45 49 37 16 -3 27 -1 27 5 0 6 3 10
8 10 22 -4 34 3 28 16 -3 9 0 15 10 15 8 0 12 5 9 11 -5 7 -15 4 -32 -7 -20
-13 -27 -14 -34 -3 -7 13 24 49 43 49 4 0 8 5 8 10 0 6 -7 10 -15 10 -8 0 -15
-4 -15 -10 0 -5 -19 -15 -42 -22 -30 -9 -44 -20 -52 -40 -6 -15 -16 -28 -22
-28 -7 0 -25 -11 -41 -24 -15 -12 -34 -21 -41 -19 -7 3 -19 -1 -27 -7 -12 -10
-15 -9 -15 4 0 9 8 16 18 16 10 0 19 7 19 15 0 11 -6 14 -16 9 -9 -4 -32 -6
-52 -5 -21 1 -43 -5 -52 -13 -8 -8 -18 -12 -21 -8 -4 3 -10 2 -14 -3 -4 -6
-22 -15 -41 -22 l-34 -12 23 24 c13 14 28 25 34 25 6 0 22 9 36 20 l25 20 -35
-3 c-19 -2 -50 -11 -68 -21 -26 -13 -32 -22 -28 -39 3 -12 3 -16 0 -9 -7 15
-34 16 -34 0 0 -6 -3 -8 -7 -5 -3 4 -15 0 -25 -10 -10 -9 -21 -13 -24 -10 -4
4 -20 -3 -36 -14 -25 -19 -33 -20 -59 -9 -26 11 -33 11 -47 -4 -10 -10 -12
-16 -4 -16 17 0 15 -29 -2 -36 -18 -7 -49 -71 -43 -88 3 -6 -1 -20 -9 -31 -8
-10 -14 -25 -14 -33 0 -18 -31 -85 -43 -93 -6 -4 -7 -14 -4 -23 4 -10 1 -16
-7 -16 -9 0 -12 -10 -10 -30 3 -28 2 -29 -21 -20 -24 9 -29 6 -26 -14 1 -5 -5
-6 -13 -3 -21 8 -27 -4 -18 -38 8 -29 -22 -115 -40 -115 -5 0 -4 9 2 21 15 26
8 32 -31 31 -31 -1 -31 -1 -26 44 3 27 13 55 26 68 11 12 21 26 21 31 0 5 12
26 26 47 16 22 24 44 20 54 -5 14 -10 13 -33 -10 -30 -30 -43 -33 -43 -8 0 32
-28 97 -42 98 -7 0 -24 -6 -36 -13 -37 -23 -38 -7 -4 36 33 41 40 61 22 61
-18 0 -11 29 10 42 11 7 20 21 20 30 0 10 4 18 9 18 5 0 7 8 4 18 -2 10 3 24
11 31 9 8 16 19 16 25 -1 6 -8 2 -18 -9 -9 -11 -30 -27 -45 -35 -25 -12 -29
-12 -37 0 -15 24 -12 32 10 25 18 -6 25 6 22 36 -1 4 8 15 18 24 11 10 20 22
20 27 0 9 -61 34 -69 29 -2 -2 -8 4 -13 13 -10 17 -2 56 11 56 12 0 7 70 -6
78 -5 4 -9 18 -7 32 1 14 3 29 3 33 1 4 13 19 27 32 14 13 26 30 28 37 1 8 12
28 24 45 26 37 29 51 6 28 -13 -13 -19 -14 -25 -4 -4 8 -1 18 9 25 8 6 17 24
19 40 4 28 48 84 65 84 5 0 18 9 30 20 12 11 17 20 11 20 -8 0 -10 16 -7 47 2
26 1 49 -3 52 -5 3 -14 16 -21 28 -11 21 -9 26 20 50 57 49 108 102 108 112 0
5 -4 13 -10 16 -5 3 -10 1 -10 -6 0 -7 -3 -9 -7 -6 -3 4 0 19 7 33 11 20 12
27 1 33 -7 5 -11 19 -9 32 2 20 -1 24 -19 22 -25 -3 -29 7 -11 25 9 9 8 12 -6
12 -10 0 -23 -14 -32 -35 -8 -19 -21 -35 -29 -35 -11 0 -13 5 -6 18 32 64 36
75 24 79 -7 3 -13 11 -13 18 0 16 -17 23 -46 17 -14 -2 -29 -19 -40 -45 -21
-45 -21 -47 -23 -94 0 -18 -9 -41 -18 -51 -25 -24 -43 -80 -43 -129 0 -55 -23
-80 -54 -60 -29 20 -31 51 -7 98 22 41 28 85 11 74 -5 -3 -14 -20 -19 -38 -8
-25 -9 -15 -8 53 1 47 0 110 -2 140 -2 30 0 64 5 75 7 18 6 18 -9 6 -9 -7 -17
-19 -17 -25 0 -18 -24 -66 -32 -66 -14 0 -9 45 7 66 8 10 15 25 15 32 0 14 5
26 56 142 38 87 104 251 119 295 7 22 35 83 63 137 27 53 53 109 57 125 3 15
28 59 54 98 48 71 101 173 101 193 0 7 4 12 8 12 8 0 42 53 42 66 0 15 -46
-36 -65 -73 -20 -39 -95 -141 -95 -129 0 12 31 68 60 107 15 21 33 58 39 83 7
28 17 45 29 48 13 4 19 15 20 37 0 18 8 44 17 58 20 29 11 45 -9 17 -23 -30
-27 -11 -7 29 10 19 21 51 24 70 5 31 3 34 -14 30 -22 -6 -42 -37 -32 -47 4
-4 -3 -9 -15 -13 -12 -3 -22 -12 -22 -19 0 -8 -4 -14 -8 -14 -4 0 -34 -23 -65
-51 -31 -28 -57 -45 -57 -37 0 21 26 88 38 100 7 7 12 19 12 28 0 21 31 67 84
124 33 36 42 52 33 58 -20 13 -27 9 -37 -17 -5 -14 -14 -25 -19 -25 -13 0
-111 -96 -111 -109 0 -23 -18 -10 -23 17 -4 18 3 43 19 75 19 37 22 52 14 62
-8 10 -8 19 0 35 15 28 5 70 -18 70 -22 0 -114 -70 -127 -97 -11 -22 -92 -113
-100 -113 -11 0 -4 24 15 49 10 16 24 50 30 76 6 26 17 57 25 69 16 23 20 46
7 46 -12 0 -87 -71 -100 -95 -9 -17 -14 -18 -30 -8 -16 9 -24 7 -48 -13 -22
-18 -25 -23 -11 -24 9 0 17 -4 17 -8 0 -16 -52 -53 -66 -48 -8 3 -14 1 -14 -4
0 -6 -4 -10 -10 -10 -5 0 -10 7 -10 16 0 16 -13 16 -72 -2 -18 -5 -19 -2 -22
46 -1 8 -7 15 -14 14 -6 -1 -19 -2 -27 -2 -17 -2 -41 -45 -59 -106 -7 -22 -24
-58 -39 -79 -41 -60 -88 -183 -102 -271 -22 -131 -30 -165 -69 -286 -21 -63
-41 -149 -46 -190 -4 -41 -13 -88 -19 -103 -6 -16 -11 -52 -11 -81 0 -29 -7
-75 -15 -102 -23 -78 -21 -241 5 -374 13 -63 22 -132 22 -153 -1 -21 4 -50 10
-65 6 -16 13 -147 16 -317 9 -454 11 -434 -42 -585 l-45 -131 14 -67 c8 -37
19 -83 25 -102 6 -19 15 -84 20 -145 5 -60 11 -124 13 -140 1 -17 17 -52 35
-78 18 -27 32 -57 32 -69 0 -27 73 -95 110 -103 16 -4 46 -25 66 -48 48 -53
104 -98 114 -92 5 3 1 -21 -7 -52 -18 -69 -19 -157 -5 -283 3 -20 51 -75 79
-89 12 -6 46 -11 75 -11 40 0 66 -8 107 -30 78 -43 122 -52 241 -51 162 2 196
-11 302 -120 85 -86 89 -89 133 -89 53 0 64 10 127 109 33 51 44 61 52 49 6
-7 19 -12 29 -10 19 4 23 -13 6 -24 -6 -3 -7 -9 -2 -13 5 -3 13 -17 19 -30 8
-20 19 -25 57 -27 56 -4 67 -9 67 -32 0 -24 50 -74 134 -137 39 -28 101 -76
138 -106 37 -30 81 -63 97 -74 162 -109 237 -161 274 -193 24 -20 64 -53 88
-72 24 -19 64 -54 89 -77 76 -71 143 -122 190 -145 25 -12 97 -52 160 -89 198
-115 240 -129 240 -80 0 11 4 22 8 25 5 3 9 24 10 48 3 63 12 98 27 98 7 0 15
-7 19 -15 3 -8 15 -15 26 -15 11 0 20 -4 20 -10 0 -16 -23 -60 -32 -60 -4 0
-8 -7 -8 -15 0 -9 -7 -18 -15 -21 -18 -7 -20 -64 -2 -87 6 -9 35 -22 62 -29
28 -6 57 -18 65 -25 9 -6 41 -19 72 -27 31 -8 65 -19 76 -25 16 -9 174 -28
362 -44 44 -4 113 -19 175 -38 42 -13 618 -41 690 -34 33 4 76 11 95 15 19 5
65 16 102 24 36 9 95 29 130 45 34 16 96 41 136 55 40 14 126 56 190 94 64 38
137 78 162 89 25 11 70 31 100 44 30 13 104 52 165 87 60 34 164 90 230 123
66 34 143 73 170 88 173 94 215 118 255 146 47 32 181 111 260 152 74 39 83
45 164 113 75 63 144 146 199 240 33 58 114 120 154 120 65 0 140 -83 268
-300 22 -36 48 -76 60 -90 12 -14 29 -38 39 -53 9 -16 38 -42 64 -58 72 -47
100 -39 262 68 231 155 283 217 296 356 3 34 13 85 21 112 20 65 130 289 189
383 51 83 84 176 84 240 0 24 7 69 16 100 22 76 117 253 168 312 72 84 103
124 136 179 29 46 32 57 25 94 -4 23 -8 60 -9 82 -1 22 -7 65 -13 95 -7 30
-14 109 -18 175 -3 66 -10 154 -15 195 -22 169 -23 180 -9 196 7 9 22 20 34
24 28 11 91 -23 110 -60 22 -43 225 -247 258 -259 20 -8 35 -8 50 0 40 21 67
52 67 77 0 14 -29 74 -65 133 -36 60 -65 113 -65 118 0 6 -8 16 -17 23 -10 7
-27 30 -37 51 -11 21 -35 54 -53 73 -18 20 -33 42 -33 50 0 8 -4 14 -9 14 -5
0 -7 -9 -4 -20 3 -11 1 -20 -5 -20 -12 0 -152 138 -152 151 0 14 9 11 37 -11
14 -11 29 -17 34 -14 5 3 9 -1 9 -9 0 -18 34 -57 49 -57 21 0 16 7 -80 114
-20 23 -44 55 -53 73 -9 18 -29 51 -44 75 -16 24 -39 68 -51 97 -13 30 -40 89
-61 130 -77 153 -83 173 -87 326 -4 132 -6 147 -44 258 -49 143 -58 222 -35
299 28 96 20 150 -34 258 -49 97 -81 205 -70 234 5 15 7 48 4 74 -6 49 -33
122 -45 122 -6 0 -52 34 -102 75 -9 8 -41 29 -71 45 -30 17 -60 38 -66 45 -7
8 -25 15 -40 15 -15 0 -44 13 -65 30 -21 17 -46 30 -56 30 -11 0 -19 6 -19 14
0 21 -47 55 -68 49 -10 -2 -34 10 -59 32 -42 36 -103 57 -103 36z m-20 -615
c0 -11 -19 -15 -25 -6 -3 5 1 10 9 10 9 0 16 -2 16 -4z m206 -241 c1 -8 -4
-15 -12 -15 -16 0 -16 2 -8 25 7 17 17 13 20 -10z m-116 -37 c0 -5 -9 -4 -20
2 -12 6 -17 16 -13 27 6 14 8 14 20 -3 7 -10 13 -22 13 -26z m-6656 17 c3 -9
0 -15 -9 -15 -8 0 -15 7 -15 15 0 8 4 15 9 15 5 0 11 -7 15 -15z m6576 -775
c0 -5 -2 -10 -4 -10 -3 0 -8 5 -11 10 -3 6 -1 10 4 10 6 0 11 -4 11 -10z m32
-75 c-11 -21 -25 -4 -16 20 4 10 10 13 16 7 7 -7 7 -16 0 -27z m147 -32 c10
-10 21 -26 24 -35 4 -10 12 -18 20 -18 16 0 53 -41 69 -76 8 -16 17 -23 29
-19 24 8 129 -40 129 -59 0 -9 19 -29 43 -46 23 -17 78 -56 121 -87 44 -31 74
-59 67 -61 -7 -2 -20 3 -30 12 -10 9 -26 16 -36 16 -17 0 -16 -3 6 -27 17 -18
19 -24 7 -20 -38 13 -98 58 -98 73 0 9 -6 14 -14 11 -7 -3 -26 7 -42 21 -15
15 -48 43 -72 64 -24 21 -40 38 -37 38 3 0 -6 11 -20 24 -15 14 -33 22 -40 20
-7 -3 -16 -1 -20 5 -4 7 -14 5 -30 -5 -23 -15 -26 -14 -54 5 -41 30 -101 101
-101 121 0 22 19 40 36 33 10 -4 12 0 8 11 -8 21 12 21 35 -1z m491 7 c0 -5
-2 -10 -4 -10 -3 0 -8 5 -11 10 -3 6 -1 10 4 10 6 0 11 -4 11 -10z m-344 -298
c2 -28 -22 -29 -38 -2 -7 11 -19 20 -26 20 -9 0 -12 6 -8 16 4 10 -1 26 -11
37 -10 12 4 6 32 -14 32 -23 50 -43 51 -57z m-3831 -87 c-26 -30 -49 -55 -51
-55 -6 0 68 105 79 112 27 16 16 -5 -28 -57z m-75 -85 c0 -5 -5 -10 -11 -10
-5 0 -7 5 -4 10 3 6 8 10 11 10 2 0 4 -4 4 -10z m-3185 -50 c-4 -12 -9 -19
-12 -17 -3 3 -2 15 2 27 4 12 9 19 12 17 3 -3 2 -15 -2 -27z m-48 -2 c-3 -8
-6 -5 -6 6 -1 11 2 17 5 13 3 -3 4 -12 1 -19z m3126 -19 c-9 -9 -12 -7 -10 9
1 14 5 18 11 12 7 -7 6 -14 -1 -21z m-3197 -188 c-3 -5 1 -11 8 -14 11 -4 14
-22 12 -69 -3 -72 -12 -98 -32 -98 -18 0 -20 96 -1 103 9 3 8 8 -3 22 -10 13
-11 19 -4 22 7 2 10 13 7 23 -3 12 0 20 6 20 7 0 10 -4 7 -9z m-76 -16 c0 -2
-7 -8 -15 -15 -12 -10 -15 -10 -15 2 0 8 7 15 15 15 8 0 15 -1 15 -2z m-50
-100 c-24 -47 -27 -30 -4 23 9 20 18 32 20 27 2 -6 -5 -28 -16 -50z m8390 -25
c0 -5 -2 -10 -4 -10 -3 0 -8 5 -11 10 -3 6 -1 10 4 10 6 0 11 -4 11 -10z m28
-42 c7 -7 12 -16 12 -20 0 -15 -15 -8 -28 12 -13 22 -3 27 16 8z m-8288 -18
c12 -7 12 -12 1 -34 -12 -21 -16 -23 -35 -13 -11 7 -22 13 -24 14 -4 2 31 41
38 42 3 0 12 -3 20 -9z m-96 -165 c-4 -10 0 -15 11 -15 11 0 15 -7 13 -22 -2
-13 -10 -23 -18 -23 -8 0 -18 -4 -22 -10 -5 -6 -11 -5 -17 4 -7 11 -10 9 -16
-8 -6 -21 -25 -29 -25 -11 0 6 5 10 10 10 6 0 10 7 10 15 0 9 10 20 23 25 12
5 18 9 14 9 -4 1 -3 10 3 21 13 23 22 27 14 5z m7824 -100 c14 -31 15 -48 3
-41 -12 8 -32 66 -22 66 4 0 13 -11 19 -25z m-7868 -36 c0 -5 4 -8 8 -5 4 2
14 0 22 -5 12 -8 12 -12 2 -16 -7 -2 -18 -11 -26 -18 -7 -8 -16 -11 -20 -8 -3
4 -6 1 -6 -4 0 -6 5 -13 11 -15 8 -3 1 -20 -16 -48 -16 -25 -29 -59 -31 -77
-1 -18 -9 -40 -18 -49 -9 -8 -16 -23 -16 -32 0 -9 -7 -26 -15 -36 -8 -10 -12
-23 -8 -29 3 -5 0 -13 -7 -17 -19 -12 -50 31 -50 68 0 16 9 41 20 55 11 14 20
31 20 39 0 12 18 64 49 141 6 15 15 27 21 27 6 0 9 4 5 9 -6 10 22 30 43 31 6
0 12 -5 12 -11z m7520 7 c0 -3 -4 -8 -10 -11 -5 -3 -10 -1 -10 4 0 6 5 11 10
11 6 0 10 -2 10 -4z m229 -144 c14 -38 44 -73 64 -76 9 -1 32 -16 50 -33 17
-18 61 -44 97 -58 87 -36 93 -39 98 -55 3 -9 -1 -11 -14 -6 -11 4 -42 11 -71
16 -29 5 -62 15 -75 22 -13 7 -43 19 -67 28 -24 8 -49 24 -55 35 -6 10 -17 25
-24 33 -10 12 -10 17 0 30 8 9 8 13 2 9 -15 -9 -44 35 -44 67 0 33 25 25 39
-12z m-108 -18 c7 -8 21 -13 31 -11 10 3 16 1 12 -4 -3 -5 6 -13 20 -19 33
-12 33 -37 2 -52 -32 -14 -63 -4 -47 16 9 11 7 15 -13 20 -17 4 -25 14 -28 36
-5 33 3 38 23 14z m-7541 -24 c0 -5 -2 -10 -4 -10 -3 0 -8 5 -11 10 -3 6 -1
10 4 10 6 0 11 -4 11 -10z m3107 -42 c-3 -8 -6 -5 -6 6 -1 11 2 17 5 13 3 -3
4 -12 1 -19z m1407 -103 c3 -8 1 -15 -3 -15 -5 0 -11 7 -15 15 -3 8 -1 15 3
15 5 0 11 -7 15 -15z m218 -44 c-4 -10 1 -12 16 -7 17 6 24 2 34 -18 6 -14 19
-26 28 -26 20 0 120 -107 120 -129 0 -4 12 -13 26 -20 23 -10 26 -9 31 8 4 16
10 11 29 -26 27 -54 25 -66 -4 -29 -23 30 -32 33 -32 10 0 -9 -5 -13 -12 -10
-7 3 -21 9 -30 12 -10 4 -18 11 -18 16 0 6 -7 7 -16 4 -12 -4 -15 -2 -10 9 4
10 -1 15 -14 15 -21 0 -28 16 -10 22 6 2 -2 16 -16 31 -14 16 -24 31 -21 34 7
6 -47 53 -61 53 -20 0 -72 58 -66 74 5 12 9 13 19 3 7 -6 10 -18 7 -26z m1155
3 c-3 -3 -12 -4 -19 -1 -8 3 -5 6 6 6 11 1 17 -2 13 -5z m1794 -31 c14 -25 15
-33 5 -33 -23 0 -66 40 -59 56 9 23 34 12 54 -23z m-7916 -61 c-6 -14 -8 -13
-16 7 -7 18 -6 27 3 32 15 10 23 -14 13 -39z m6595 12 c0 -8 4 -14 10 -14 5 0
18 -17 29 -37 11 -21 29 -48 41 -60 11 -13 16 -23 11 -23 -6 0 -15 9 -21 20
-6 11 -29 32 -50 45 -34 22 -40 30 -40 61 0 21 4 33 10 29 6 -3 10 -13 10 -21z
m-5823 -6 c-3 -8 -6 -5 -6 6 -1 11 2 17 5 13 3 -3 4 -12 1 -19z m5883 12 c0
-5 -2 -10 -4 -10 -3 0 -8 5 -11 10 -3 6 -1 10 4 10 6 0 11 -4 11 -10z m82 -98
c9 -18 13 -32 8 -32 -6 0 -17 17 -27 38 -9 20 -19 41 -22 47 -11 23 26 -24 41
-53z m-6787 38 c3 -5 2 -10 -4 -10 -5 0 -13 5 -16 10 -3 6 -2 10 4 10 5 0 13
-4 16 -10z m6043 -35 c20 -14 30 -25 21 -25 -8 0 -30 11 -49 25 -19 14 -28 25
-21 25 6 0 29 -11 49 -25z m-898 -81 c19 -25 49 -61 67 -79 23 -25 28 -35 17
-39 -8 -3 -14 1 -14 9 0 7 -12 23 -27 35 -15 11 -35 33 -45 48 -9 15 -25 37
-34 50 -32 43 1 21 36 -24z m-5200 26 c0 -5 -7 -10 -16 -10 -8 0 -12 5 -9 10
3 6 10 10 16 10 5 0 9 -4 9 -10z m6730 -40 c9 -16 8 -18 -5 -14 -8 4 -15 12
-15 20 0 20 7 17 20 -6z m500 -10 c0 -14 -14 -12 -28 2 -19 19 -14 30 8 18 11
-6 20 -15 20 -20z m-473 -22 c-3 -8 -6 -5 -6 6 -1 11 2 17 5 13 3 -3 4 -12 1
-19z m279 -16 c-4 -3 -11 0 -16 8 -15 24 -11 33 6 15 9 -9 13 -19 10 -23z
m-3576 3 c0 -8 -4 -15 -10 -15 -5 0 -7 7 -4 15 4 8 8 15 10 15 2 0 4 -7 4 -15z
m-3446 -40 c2 -7 -4 -21 -15 -31 -25 -22 -43 -7 -34 28 5 19 12 24 25 21 10
-3 21 -11 24 -18z m7001 15 c3 -5 1 -10 -4 -10 -6 0 -11 5 -11 10 0 6 2 10 4
10 3 0 8 -4 11 -10z m66 -17 c11 -29 8 -29 -22 3 -21 23 -22 26 -5 23 10 -2
22 -14 27 -26z m-3650 -40 c-8 -31 -28 -42 -37 -20 -6 16 25 59 37 51 4 -2 4
-16 0 -31z m3535 -10 c7 -7 19 -13 26 -13 8 1 4 8 -9 19 -13 11 -23 23 -23 27
0 4 5 3 11 -3 6 -6 17 -9 23 -7 13 5 57 -65 55 -87 0 -11 -2 -11 -6 -1 -4 10
-8 9 -19 -5 -9 -12 -13 -13 -14 -5 0 7 -16 30 -35 50 -19 20 -35 44 -34 52 0
13 1 13 6 0 4 -8 12 -20 19 -27z m-1121 -3 c3 -5 1 -10 -4 -10 -6 0 -11 5 -11
10 0 6 2 10 4 10 3 0 8 -4 11 -10z m925 -20 c0 -5 -4 -10 -10 -10 -5 0 -10 5
-10 10 0 6 5 10 10 10 6 0 10 -4 10 -10z m-890 -9 c0 -5 -7 -11 -14 -14 -10
-4 -13 -1 -9 9 6 15 23 19 23 5z m-2750 -144 c0 -7 -16 -31 -35 -53 -19 -21
-35 -34 -35 -27 0 6 6 18 13 25 7 7 21 25 31 41 20 30 26 33 26 14z m-2100
-47 c0 -5 -5 -10 -11 -10 -5 0 -7 5 -4 10 3 6 8 10 11 10 2 0 4 -4 4 -10z
m195 -29 c3 -5 1 -12 -5 -16 -5 -3 -10 1 -10 9 0 18 6 21 15 7z m1965 -81 c0
-5 -4 -10 -10 -10 -5 0 -10 5 -10 10 0 6 5 10 10 10 6 0 10 -4 10 -10z m-450
-89 c0 -5 -7 -12 -16 -15 -14 -5 -15 -4 -4 9 14 17 20 19 20 6z m1804 -26 c3
-8 1 -15 -4 -15 -6 0 -10 7 -10 15 0 8 2 15 4 15 2 0 6 -7 10 -15z m-1972 -60
c-2 -14 -8 -25 -12 -25 -4 0 -7 11 -7 25 0 14 5 25 12 25 8 0 10 -9 7 -25z
m-296 -32 c-10 -10 -19 5 -10 18 6 11 8 11 12 0 2 -7 1 -15 -2 -18z m2755
-494 c21 -43 23 -49 11 -49 -9 0 -62 91 -62 105 0 16 32 -20 51 -56z m-992
-81 c-8 -14 -14 -18 -17 -10 -4 13 17 46 25 38 3 -2 -1 -15 -8 -28z m681 -30
c0 -5 7 -8 15 -8 13 0 17 -6 14 -26 0 -3 8 -12 18 -19 14 -11 16 -16 6 -26 -7
-7 -13 -21 -13 -31 0 -10 -4 -18 -10 -18 -5 0 -6 7 -3 17 4 10 2 14 -4 10 -10
-7 -22 23 -28 69 -2 12 -10 36 -20 55 l-16 34 20 -25 c11 -14 21 -28 21 -32z
m332 12 c15 -16 13 -44 -3 -34 -5 3 -9 0 -9 -7 0 -7 -11 2 -25 21 -14 19 -25
34 -25 35 0 8 50 -4 62 -15z m-1449 -28 c-26 -23 -44 -49 -48 -70 -4 -22 -12
-32 -20 -28 -8 3 -11 -2 -8 -13 3 -10 -5 -39 -16 -64 -25 -56 -25 -57 -3 -58
12 0 13 -2 3 -6 -11 -4 -11 -7 0 -14 11 -6 10 -12 -5 -27 -11 -13 -14 -22 -7
-27 19 -11 13 -52 -9 -58 -13 -3 -18 -10 -14 -21 4 -10 1 -16 -8 -16 -11 0
-14 12 -14 43 1 34 -2 42 -16 41 -10 -1 -18 3 -18 8 0 6 -7 8 -15 4 -12 -4
-15 3 -15 29 0 46 17 88 32 79 7 -4 8 -3 4 4 -8 13 20 72 34 72 5 0 7 6 4 14
-3 7 2 16 10 19 9 4 16 12 16 19 0 9 -3 9 -10 -2 -5 -8 -12 -11 -15 -8 -7 6
29 45 84 93 16 14 24 16 29 8 6 -9 14 -9 32 1 39 22 38 18 -7 -22z m129 1 c-4
-10 -15 -34 -24 -53 -9 -19 -23 -50 -30 -67 -14 -36 -16 -37 -37 -24 -11 7
-11 13 0 32 7 13 15 37 18 53 4 16 13 32 20 34 8 3 11 0 7 -7 -4 -6 -5 -11 -2
-11 3 0 12 14 21 30 16 32 40 43 27 13z m578 -59 c-6 -38 -14 -73 -18 -78 -6
-11 -8 -19 -18 -79 -4 -22 -14 -42 -26 -48 -10 -6 -24 -22 -30 -37 -9 -22 -12
-23 -15 -9 -3 9 -9 17 -14 17 -5 0 -9 5 -9 11 0 5 5 7 11 3 7 -4 9 0 5 14 -4
12 0 26 10 36 15 16 15 19 -5 40 -11 12 -21 26 -21 32 0 5 7 0 15 -10 14 -19
15 -19 21 0 18 57 27 72 39 68 7 -3 17 8 24 25 6 17 16 45 22 61 18 48 22 27
9 -46z m-314 -1 c-9 -27 -19 -69 -22 -96 -6 -44 -18 -66 -30 -54 -10 9 8 98
22 112 8 7 14 17 14 22 0 22 23 86 27 76 3 -7 -2 -34 -11 -60z m-506 32 c0 -8
-7 -15 -15 -15 -16 0 -20 12 -8 23 11 12 23 8 23 -8z m1100 -21 c0 -14 -4 -23
-9 -20 -7 5 -8 23 -2 44 4 12 11 -3 11 -24z m90 -17 c0 -6 7 -19 17 -29 9 -10
13 -18 10 -18 -12 0 -57 55 -57 69 0 11 3 11 15 1 8 -7 15 -17 15 -23z m-914
-8 c2 -30 5 -34 13 -20 6 9 9 5 9 -13 0 -19 -9 -31 -29 -42 -16 -8 -29 -22
-29 -31 0 -17 -37 -96 -72 -153 -12 -19 -36 -62 -55 -95 -18 -33 -33 -58 -33
-55 0 15 52 145 61 151 7 4 12 18 12 33 0 15 5 26 13 26 20 0 17 13 -6 28 -11
7 -20 18 -20 25 0 8 3 8 9 -2 13 -20 43 12 60 64 22 68 43 106 55 102 6 -2 11
-10 12 -18z m-2189 -32 c-25 -9 -33 -2 -18 17 10 12 16 13 26 3 10 -10 9 -13
-8 -20z m3020 -19 c-3 -7 -5 -2 -5 12 0 14 2 19 5 13 2 -7 2 -19 0 -25z
m-3047 -12 c0 -3 -4 -8 -10 -11 -5 -3 -10 -1 -10 4 0 6 5 11 10 11 6 0 10 -2
10 -4z m2377 -81 c-4 -8 -2 -17 3 -20 6 -4 10 -1 10 6 0 7 2 10 5 7 3 -3 2
-19 -1 -37 -7 -34 -21 -30 -29 8 -4 22 3 51 12 51 3 0 3 -7 0 -15z m-297 -79
c0 -3 -4 -8 -10 -11 -5 -3 -10 -1 -10 4 0 6 5 11 10 11 6 0 10 -2 10 -4z m178
-100 c0 -24 3 -50 6 -57 4 -8 0 -5 -9 6 -23 29 -29 62 -13 79 7 8 14 15 15 16
1 0 2 -20 1 -44z m-1417 -263 c1 -10 3 -28 4 -40 1 -13 -2 -20 -10 -17 -7 3
-20 -2 -29 -12 -27 -26 -44 -2 -22 31 9 14 14 30 11 35 -4 7 10 15 38 19 4 0
8 -7 8 -16z m129 -53 c0 -5 -5 -10 -11 -10 -5 0 -7 5 -4 10 3 6 8 10 11 10 2
0 4 -4 4 -10z m-130 -41 c0 -18 -2 -20 -15 -9 -13 11 -13 15 -3 21 18 12 18
12 18 -12z"/>
<path d="M7646 2652 c-3 -6 -1 -14 5 -17 14 -9 20 -2 10 14 -6 8 -11 9 -15 3z"/>
<path d="M7910 6200 c19 -13 30 -13 30 0 0 6 -10 10 -22 10 -19 0 -20 -2 -8
-10z"/>
<path d="M7853 6109 c1 -11 7 -19 13 -19 7 0 14 -6 17 -12 2 -7 4 -1 3 14 -1
16 -8 29 -18 31 -11 3 -16 -1 -15 -14z"/>
<path d="M3600 6018 c0 -3 9 -15 20 -28 11 -13 20 -31 20 -42 0 -16 11 -23 32
-19 4 0 10 -10 14 -24 3 -14 9 -25 13 -25 7 0 31 -58 31 -74 0 -4 -4 -5 -9 -2
-5 4 -11 2 -13 -3 -1 -6 -20 6 -42 25 -41 37 -52 41 -59 22 -3 -7 -6 -3 -6 10
-1 32 -19 62 -37 62 -8 0 -17 7 -20 15 -9 22 -22 18 -26 -7 -4 -30 -26 -34
-30 -6 -2 15 -10 23 -23 23 -11 0 -19 -6 -17 -13 2 -10 -2 -10 -17 -2 -21 10
-40 -3 -21 -15 15 -9 50 -81 43 -88 -3 -3 -21 9 -41 28 -33 30 -40 33 -89 30
-30 -1 -50 1 -47 6 3 5 2 9 -3 8 -25 -4 -42 2 -37 15 3 8 -3 16 -16 19 -16 4
-20 2 -16 -9 4 -12 2 -12 -15 -4 -11 6 -25 9 -32 6 -8 -3 -7 -5 3 -5 8 -1 24
-13 37 -27 14 -16 28 -24 38 -21 8 4 15 3 15 -2 0 -5 13 -11 30 -14 21 -5 28
-11 24 -22 -4 -10 0 -15 14 -15 12 0 24 -5 28 -11 4 -8 -1 -9 -16 -4 -13 4
-25 3 -29 -4 -4 -6 -26 -12 -48 -14 -37 -2 -40 -4 -37 -27 3 -14 6 -30 9 -37
3 -9 -2 -10 -20 -3 -14 5 -25 8 -26 7 -8 -23 -3 -37 17 -46 13 -6 24 -17 24
-26 0 -20 -8 -19 -52 5 -37 19 -68 18 -68 -3 0 -7 -4 -7 -12 1 -17 17 -24 15
-25 -8 -1 -14 4 -20 20 -20 13 0 31 -9 40 -21 10 -11 24 -18 32 -16 8 4 12 -2
11 -18 -1 -20 -5 -23 -24 -18 -17 4 -21 2 -16 -10 4 -11 -1 -15 -20 -13 -14 0
-26 4 -26 7 0 10 -65 6 -72 -4 -8 -12 1 -39 11 -32 4 2 8 -2 8 -10 0 -8 -8
-15 -18 -15 -26 0 -50 -11 -44 -20 13 -22 -175 -30 -201 -9 -6 5 -22 8 -35 6
-13 -2 -39 0 -57 5 -26 7 -38 6 -51 -6 -10 -9 -31 -16 -47 -16 -25 -1 -27 -2
-11 -11 10 -6 56 -11 103 -12 46 -1 84 -5 84 -8 0 -15 33 -18 58 -5 31 16 82
10 82 -9 0 -8 8 -11 20 -8 11 3 28 2 37 -3 10 -4 20 -8 23 -9 3 -2 15 -6 28
-10 26 -8 29 -30 6 -39 -34 -13 -191 15 -205 37 -7 11 -29 1 -29 -13 0 -5 19
-15 43 -22 23 -6 52 -18 64 -26 12 -7 27 -11 32 -7 6 3 23 -1 38 -10 28 -16
28 -16 -21 -10 -36 5 -46 4 -41 -5 4 -7 1 -16 -6 -21 -11 -7 -11 -9 3 -9 26 0
68 -22 62 -31 -3 -5 -24 -9 -47 -9 -53 0 -79 -14 -45 -24 20 -7 18 -9 -22 -20
-40 -11 -43 -13 -25 -23 17 -10 15 -12 -20 -18 -22 -3 -46 -7 -54 -8 -20 -3
-26 -27 -6 -27 9 0 13 -4 10 -10 -3 -5 -16 -10 -28 -10 -12 0 -31 -7 -42 -16
-11 -8 -38 -19 -60 -25 -45 -12 -108 -56 -100 -69 3 -5 0 -12 -6 -16 -8 -4 -8
-8 0 -13 12 -8 -22 -71 -39 -71 -9 0 -14 20 -12 41 1 4 -6 9 -16 11 -12 4 -17
-2 -18 -18 -1 -14 5 -24 17 -27 31 -8 22 -22 -36 -61 -30 -20 -55 -43 -55 -51
0 -8 -9 -15 -20 -15 -18 0 -20 -4 -14 -35 4 -25 3 -35 -6 -35 -7 0 -32 -16
-55 -35 -23 -19 -54 -39 -68 -46 -28 -13 -39 -48 -23 -76 25 -44 9 -75 -57
-106 -20 -10 -44 -29 -53 -42 -9 -14 -22 -21 -30 -18 -10 4 -12 0 -8 -11 4
-11 13 -15 23 -11 9 4 25 8 35 11 11 2 22 8 26 14 8 14 40 2 40 -14 0 -16 91
-13 134 3 24 10 35 8 71 -13 31 -17 46 -21 54 -13 6 6 27 11 47 11 49 1 56 23
9 32 -29 5 -33 9 -24 21 7 8 19 11 28 7 9 -4 25 -6 36 -6 25 1 45 -16 45 -38
0 -10 6 -21 13 -23 7 -3 5 -6 -5 -6 -10 -1 -18 5 -18 13 0 8 -7 16 -15 20 -8
3 -15 2 -15 -2 1 -13 27 -42 38 -42 6 0 13 -13 17 -30 6 -25 11 -30 37 -30 23
0 29 -4 26 -17 -2 -13 -18 -20 -58 -27 -30 -5 -48 -11 -40 -13 8 -3 22 -7 30
-10 8 -4 22 -5 29 -4 11 2 12 -1 5 -11 -16 -21 -11 -43 10 -40 31 6 50 -6 37
-22 -17 -20 2 -29 42 -21 l32 7 -27 -21 c-14 -11 -31 -21 -37 -21 -6 0 -11 -5
-11 -10 0 -14 30 -25 39 -14 3 5 24 11 45 12 32 3 38 1 33 -12 -5 -13 -2 -15
21 -9 15 3 41 12 59 20 18 7 45 13 59 13 15 0 35 6 43 14 9 8 37 21 63 30 26
9 74 33 105 55 32 21 83 47 113 56 30 10 69 23 85 29 17 6 33 10 38 8 4 -1 24
6 45 16 32 16 144 46 206 54 24 4 34 28 11 28 -27 0 -7 19 51 46 62 29 95 60
87 80 -5 14 45 63 79 76 10 4 18 14 18 23 0 8 4 15 10 15 13 0 41 44 42 67 0
10 -3 26 -7 37 -7 15 -5 17 14 11 14 -4 23 -2 27 9 3 9 15 16 25 16 12 0 19 7
19 20 0 11 5 20 10 20 6 0 10 7 10 16 0 12 5 14 18 9 34 -15 62 -17 62 -6 0 6
-4 11 -10 11 -5 0 -9 11 -8 25 1 14 6 25 10 25 4 0 5 6 2 14 -3 8 -1 17 5 20
6 4 8 13 4 21 -3 10 1 15 16 15 14 0 23 8 27 25 4 18 15 28 35 32 20 4 29 12
29 24 0 11 5 19 11 19 6 0 8 8 4 19 -8 26 15 39 30 18 13 -19 55 -23 55 -6 0
6 9 8 22 4 16 -6 20 -4 15 9 -3 8 -2 18 4 21 5 4 7 11 4 16 -10 14 7 11 26 -7
11 -10 19 -12 24 -5 3 6 1 11 -4 11 -6 0 -11 7 -11 15 0 8 5 15 10 15 6 0 10
-5 10 -12 0 -9 3 -9 12 0 9 9 9 19 0 45 -16 45 -15 69 2 32 8 -16 23 -40 34
-51 12 -12 18 -24 15 -27 -3 -3 -2 -11 3 -18 4 -8 13 0 26 25 10 20 23 36 28
36 14 0 13 67 -1 72 -14 5 -20 56 -8 64 12 7 12 54 -1 54 -17 0 -11 37 6 44
13 5 15 2 11 -14 -3 -12 -1 -18 5 -14 5 4 8 17 5 30 -2 13 1 25 7 27 12 5 14
-38 3 -50 -11 -10 -8 -113 2 -113 5 0 11 5 13 11 2 5 11 7 20 4 14 -6 16 -16
12 -53 -5 -45 -5 -46 11 -27 11 13 14 30 10 51 -4 23 -1 33 10 38 9 3 13 11 9
17 -6 10 11 28 27 29 10 0 3 -65 -10 -99 -16 -36 -16 -36 22 -45 28 -7 31 -3
27 42 -1 12 3 22 8 22 8 0 7 37 -4 87 -2 13 -13 23 -26 25 -28 4 -35 29 -53
183 -3 30 -13 56 -25 67 -20 18 -20 18 -30 -6 -10 -28 -3 -59 11 -50 5 3 9 0
9 -6 0 -6 -7 -13 -15 -16 -8 -4 -15 -12 -15 -20 0 -8 -4 -14 -9 -14 -5 0 -8 8
-7 18 0 9 -4 16 -11 15 -7 -2 -20 13 -29 32 -9 19 -20 35 -25 35 -5 0 -9 6 -9
14 0 8 14 15 35 18 19 2 35 0 35 -5 0 -5 6 -2 14 6 18 17 33 107 18 107 -6 0
-15 -12 -20 -27 -10 -27 -11 -28 -17 -5 -5 15 -15 22 -31 22 -21 0 -24 -5 -24
-39 0 -21 -6 -44 -13 -50 -19 -15 -30 -1 -14 17 9 13 9 14 0 8 -9 -5 -13 -1
-13 10 0 10 -3 14 -6 11 -8 -7 -44 36 -44 52 0 16 -11 13 -27 -6 -8 -10 -11
-12 -7 -4 5 11 3 13 -10 8 -10 -4 -15 -3 -11 3 3 6 1 10 -6 10 -7 0 -10 2 -7
5 3 3 -7 19 -23 36 -15 17 -26 36 -22 45 3 9 -1 14 -12 14 -12 0 -15 -6 -10
-22 6 -23 6 -23 -9 -3 -23 30 -70 75 -79 75 -5 0 -7 -10 -5 -22 2 -19 -1 -23
-19 -21 -13 2 -23 -3 -23 -10 0 -6 -5 -4 -11 6 -8 14 -14 15 -24 7 -11 -9 -16
-6 -25 10 -7 13 -19 20 -33 18 -16 -2 -25 5 -36 27 l-14 30 -12 -40 c-10 -35
-13 -37 -20 -20 -5 11 -11 22 -15 25 -3 3 -16 19 -28 37 -12 17 -36 39 -53 47
-31 15 -31 15 -27 -9 3 -13 0 -26 -6 -29 -6 -2 -3 -5 7 -5 19 -1 21 -9 9 -29
-6 -8 -15 0 -31 28 -12 22 -26 38 -30 36 -4 -3 -13 -1 -21 5 -11 6 -12 9 -2 9
7 0 10 5 7 10 -4 6 -10 8 -15 5 -5 -3 -11 -1 -15 5 -10 16 -25 12 -25 -7 0
-13 -7 -10 -30 12 -16 16 -30 26 -30 23z m143 -111 c-3 -5 -9 -3 -14 4 -4 7
-5 17 -2 22 3 5 9 3 14 -4 4 -7 5 -17 2 -22z m-369 -42 c-4 -8 -11 -12 -16 -9
-6 4 -5 10 3 15 19 12 19 11 13 -6z m562 -47 c-3 -13 -5 -25 -5 -27 -1 -3 -7
4 -15 15 -11 14 -11 21 -3 26 20 13 27 9 23 -14z m204 -173 c0 -8 -8 -11 -20
-8 -20 5 -25 15 -14 26 9 9 34 -4 34 -18z m-352 -50 c-3 -3 -9 2 -12 12 -6 14
-5 15 5 6 7 -7 10 -15 7 -18z m352 -10 c-6 -15 -14 -25 -17 -21 -11 11 -14 48
-4 41 5 -3 13 0 16 6 13 19 16 2 5 -26z m-953 -17 c-3 -8 -6 -5 -6 6 -1 11 2
17 5 13 3 -3 4 -12 1 -19z m43 -30 c0 -6 -6 -5 -15 2 -8 7 -15 14 -15 16 0 2
7 1 15 -2 8 -4 15 -11 15 -16z m666 -59 c1 -19 5 -46 9 -61 5 -18 3 -28 -4
-28 -6 0 -14 -1 -18 -2 -12 -4 -20 54 -12 79 6 16 5 21 -5 17 -7 -3 -13 2 -13
10 0 8 6 12 15 8 11 -4 13 -1 7 8 -5 8 -3 11 6 8 8 -3 14 -19 15 -39z m-626
16 c10 -12 10 -15 -4 -15 -9 0 -16 7 -16 15 0 8 2 15 4 15 2 0 9 -7 16 -15z
m-130 -65 c0 -5 -2 -10 -4 -10 -3 0 -8 5 -11 10 -3 6 -1 10 4 10 6 0 11 -4 11
-10z m965 -19 c3 -5 2 -12 -3 -15 -5 -3 -9 1 -9 9 0 17 3 19 12 6z m-1000 -11
c3 -5 2 -10 -4 -10 -5 0 -13 5 -16 10 -3 6 -2 10 4 10 5 0 13 -4 16 -10z
m1035 0 c0 -5 -5 -10 -11 -10 -5 0 -7 5 -4 10 3 6 8 10 11 10 2 0 4 -4 4 -10z
m-7 -37 c-3 -7 -6 -13 -8 -13 -2 0 -5 6 -8 13 -3 8 1 14 8 14 7 0 11 -6 8 -14z
m-1128 -153 c4 -6 -6 -10 -22 -10 -22 0 -25 2 -13 10 19 12 27 12 35 0z m79
-398 c7 -11 -7 -30 -24 -32 -32 -5 -50 1 -50 14 0 20 63 35 74 18z m251 -46
c23 -16 14 -46 -15 -46 -16 0 -20 7 -20 30 0 33 7 37 35 16z"/>
<path d="M3306 5981 c-4 -7 -5 -15 -2 -18 9 -9 19 4 14 18 -4 11 -6 11 -12 0z"/>
<path d="M4129 5957 c4 -12 7 -28 5 -35 -1 -7 0 -8 3 -2 2 5 11 10 19 10 12 0
12 4 2 20 -19 29 -39 34 -29 7z"/>
<path d="M7697 5923 c-13 -12 -7 -23 13 -23 13 0 18 5 14 15 -7 16 -17 19 -27
8z"/>
<path d="M3986 5891 c-4 -7 -5 -15 -2 -18 9 -9 19 4 14 18 -4 11 -6 11 -12 0z"/>
<path d="M4180 5850 c0 -5 5 -10 11 -10 5 0 7 5 4 10 -3 6 -8 10 -11 10 -2 0
-4 -4 -4 -10z"/>
<path d="M6241 5829 c-1 -19 -10 -30 -36 -42 -20 -9 -41 -17 -47 -17 -14 0
-148 -101 -148 -112 0 -9 51 20 61 36 4 5 11 6 16 3 5 -3 27 0 49 8 21 7 54
11 72 9 18 -2 31 0 27 5 -3 5 4 12 15 16 27 9 26 25 -2 17 -14 -3 -19 -2 -14
6 4 7 16 12 26 12 19 0 70 46 70 63 0 5 -10 5 -22 2 -13 -4 -31 -9 -40 -11
-10 -3 -18 2 -21 13 -3 12 -5 10 -6 -8z"/>
<path d="M5567 5783 c-4 -3 -7 -11 -7 -17 0 -6 5 -5 12 2 6 6 9 14 7 17 -3 3
-9 2 -12 -2z"/>
<path d="M6382 5770 c-33 -18 -33 -19 -12 -30 12 -7 19 -18 16 -26 -6 -15 13
-18 52 -8 14 4 22 14 21 28 0 11 -3 15 -6 8 -4 -10 -8 -9 -18 5 -11 15 -15 15
-29 4 -14 -11 -16 -11 -16 3 0 10 4 15 9 11 5 -3 13 0 17 6 4 8 9 7 16 -2 8
-12 9 -11 6 0 -6 22 -19 22 -56 1z"/>
<path d="M3192 5750 c14 -22 24 -19 15 5 -4 8 -11 15 -17 15 -6 0 -6 -7 2 -20z"/>
<path d="M5898 5718 c-16 -5 -28 -14 -28 -19 0 -12 -91 -69 -112 -69 -10 0
-19 -11 -23 -30 -4 -16 -11 -30 -16 -30 -5 0 -9 -6 -9 -12 0 -15 -57 -78 -71
-78 -12 0 -12 17 1 23 6 3 5 4 -2 3 -7 -2 -13 -13 -12 -25 0 -11 -3 -21 -7
-21 -5 0 -6 -7 -3 -15 9 -22 -4 -18 -16 6 -9 15 -8 24 1 36 11 13 10 18 -6 29
-23 17 -25 17 -47 0 -14 -10 -23 -44 -27 -101 -1 -6 -10 -11 -21 -11 -11 0
-20 5 -20 11 0 5 -5 28 -11 50 l-11 39 -19 -23 c-10 -13 -19 -33 -19 -45 0
-17 -2 -18 -10 -6 -5 8 -10 10 -10 4 0 -7 -15 -15 -34 -18 -41 -8 -53 -34 -36
-77 7 -16 11 -32 8 -34 -6 -6 -84 114 -93 143 -3 12 -11 19 -17 16 -6 -4 -6
-10 1 -17 6 -6 11 -18 11 -27 0 -8 7 -28 15 -44 18 -35 18 -36 0 -36 -19 0
-19 1 5 -55 24 -56 25 -61 6 -45 -8 6 -20 27 -26 46 -7 19 -15 32 -19 30 -4
-3 -8 6 -9 20 -1 13 3 24 8 24 6 0 10 7 10 15 0 8 -5 15 -11 15 -5 0 -8 4 -5
8 2 4 -4 8 -14 8 -23 0 -35 -49 -19 -78 6 -11 12 -44 13 -73 2 -44 9 -60 39
-97 21 -25 37 -52 37 -62 0 -32 -19 -15 -45 39 -14 30 -30 55 -35 55 -6 0 -10
9 -10 20 0 11 -3 20 -6 20 -7 0 -39 -32 -39 -39 0 -3 -5 -5 -11 -3 -6 1 -16
-4 -23 -11 -8 -11 -6 -20 9 -40 25 -31 25 -37 1 -37 -10 0 -22 7 -25 16 -3 8
-11 12 -16 9 -11 -7 -45 25 -53 48 -4 13 -37 2 -37 -14 0 -6 8 -9 18 -5 15 5
15 4 -2 -8 -19 -16 -14 -36 10 -36 8 0 14 -4 14 -10 0 -12 -22 -9 -31 4 -4 4
-18 0 -33 -9 -26 -17 -31 -44 -13 -72 4 -7 11 -35 14 -62 4 -32 13 -57 26 -68
19 -18 20 -17 8 5 -11 20 -10 22 19 22 19 0 30 -5 30 -14 0 -8 6 -21 13 -28
25 -28 37 -59 31 -83 -5 -18 -2 -25 9 -25 10 0 13 -7 10 -19 -3 -11 4 -25 19
-37 34 -27 40 -41 28 -63 -9 -17 -7 -19 14 -15 30 5 134 -56 150 -88 9 -17 21
-24 51 -26 22 -1 49 -6 60 -11 26 -12 116 -35 135 -36 8 0 15 -9 15 -20 0 -15
13 -23 60 -37 33 -10 64 -23 69 -28 6 -6 23 -10 38 -10 18 0 28 -5 28 -15 0
-12 15 -15 77 -15 81 0 94 -6 28 -12 -73 -7 -42 -23 50 -26 50 -1 99 -6 110
-11 32 -15 123 -23 130 -11 3 5 18 10 33 10 25 0 25 -1 6 -15 -18 -14 -18 -14
10 -15 21 0 27 4 22 15 -6 17 9 21 19 5 3 -5 39 -8 85 -5 78 5 80 4 77 -17 -2
-21 4 -23 55 -29 32 -3 65 -12 73 -19 8 -7 26 -10 40 -8 26 5 35 -6 13 -15 -8
-3 -5 -6 5 -6 10 -1 15 -5 12 -11 -3 -5 0 -10 8 -10 10 0 13 -7 10 -19 -4 -15
2 -20 29 -26 34 -6 78 -21 113 -36 11 -5 33 -13 48 -19 19 -7 34 -24 48 -55
11 -24 24 -47 29 -50 15 -9 12 7 -8 40 -10 17 -21 38 -25 47 -5 15 -2 16 19 8
14 -6 33 -10 42 -10 23 1 -26 29 -50 30 -26 0 -22 20 4 20 25 0 13 16 -16 22
-10 1 -24 12 -30 23 -6 11 -19 32 -28 46 -10 14 -15 29 -12 31 2 3 0 16 -5 30
-10 26 5 66 16 41 7 -18 16 -16 73 11 38 19 50 21 50 10 0 -15 8 -17 90 -14
40 1 60 7 73 21 25 26 30 24 25 -11 -5 -35 13 -46 31 -18 10 17 9 22 -6 34
-17 14 -16 15 12 11 17 -3 41 -9 54 -13 19 -5 22 -4 16 6 -6 10 -4 12 8 7 10
-3 17 -2 17 4 0 6 4 8 9 5 5 -3 11 1 14 8 7 19 65 18 92 0 23 -17 59 -19 49
-3 -4 7 3 10 17 9 13 -1 30 -2 37 -1 17 1 15 21 -3 21 -18 0 -20 17 -4 22 15
5 5 36 -22 68 -14 17 -22 21 -26 13 -3 -9 -10 -10 -23 -3 -13 7 -19 6 -23 -4
-10 -25 -41 -6 -70 41 -15 25 -36 47 -47 50 -11 3 -20 9 -20 14 0 14 -64 74
-76 71 -13 -3 -27 25 -18 39 17 28 11 48 -19 63 -40 20 -77 51 -77 65 0 6 -8
15 -17 20 -10 6 -27 17 -37 26 -19 14 -19 15 0 37 15 17 16 20 3 16 -9 -4 -28
5 -45 21 -16 15 -35 26 -42 23 -7 -2 -10 2 -6 12 3 9 10 16 15 16 17 0 9 18
-10 23 -15 3 -18 1 -13 -11 3 -10 -7 -6 -30 11 -20 15 -40 27 -44 26 -19 -3
-37 1 -31 8 4 3 -9 17 -28 30 -34 23 -35 25 -21 51 12 23 21 27 57 27 33 0 44
4 47 17 2 13 -2 15 -19 11 -15 -4 -20 -3 -15 5 4 8 2 10 -7 6 -8 -3 -18 0 -22
5 -3 6 -11 8 -17 5 -7 -5 -9 -1 -5 9 4 11 1 17 -8 17 -8 0 -15 5 -15 11 0 7
10 9 25 7 15 -3 22 -1 18 5 -4 6 0 8 11 4 10 -4 20 -7 22 -7 2 0 4 -6 4 -13 0
-7 11 -14 26 -15 15 -1 23 2 19 9 -12 18 68 -2 85 -21 8 -9 25 -20 38 -23 19
-4 21 -2 17 20 -3 19 1 26 16 30 13 4 18 11 15 20 -3 8 -6 17 -6 19 0 2 -7 4
-15 4 -8 0 -15 5 -15 10 0 6 5 10 11 10 5 0 7 5 3 12 -5 7 0 9 14 6 12 -3 22
-2 24 2 2 5 15 6 31 3 18 -4 27 -11 27 -25 0 -26 37 -78 56 -78 22 0 17 -17
-7 -23 -12 -3 -18 -10 -14 -16 3 -6 11 -9 16 -6 5 4 9 -5 9 -18 0 -20 4 -24
20 -20 15 4 19 2 15 -9 -6 -15 47 -78 65 -78 5 0 7 -7 4 -15 -4 -9 3 -23 15
-34 11 -10 19 -20 16 -23 -3 -2 13 -12 35 -22 22 -9 52 -30 67 -47 47 -50 74
-31 43 31 -11 21 -16 48 -13 67 4 24 -2 42 -23 72 -16 22 -33 41 -38 41 -5 0
-47 38 -92 85 -46 47 -92 85 -101 85 -14 0 -15 2 -4 9 8 5 9 11 3 15 -6 3 -10
15 -9 25 1 18 3 18 29 5 15 -8 28 -13 28 -10 0 12 -60 64 -88 75 -18 8 -43 26
-55 41 -13 15 -33 33 -46 39 -12 7 -19 16 -16 21 3 4 -4 6 -15 3 -11 -3 -20
-9 -20 -14 0 -5 -7 -6 -15 -3 -10 4 -15 0 -15 -15 0 -12 -6 -21 -15 -21 -23 0
-55 37 -55 64 0 19 -7 25 -42 34 -27 7 -46 8 -52 2 -6 -6 -15 -10 -21 -10 -5
0 -3 5 5 10 13 8 12 10 -3 10 -10 0 -22 11 -27 25 -5 14 -15 25 -22 26 -7 0
-23 2 -35 5 -17 3 -20 0 -16 -16 4 -15 0 -20 -13 -20 -13 0 -15 3 -7 11 17 17
4 39 -23 39 -13 0 -24 4 -24 9 0 4 -14 7 -32 5 -17 -2 -36 0 -42 5 -6 5 -20
11 -31 13 -11 1 -25 9 -31 17 -12 15 -13 15 -59 -26 -16 -15 -51 -17 -60 -3
-3 6 -12 10 -18 10 -9 0 -8 -3 1 -8 10 -7 6 -15 -14 -35 -14 -15 -31 -24 -37
-20 -9 6 12 28 35 35 5 2 6 11 3 21 -4 9 -11 14 -16 11 -5 -3 -19 -2 -31 2
-19 6 -20 8 -6 18 10 7 13 17 9 25 -6 9 -11 8 -21 -4 -7 -8 -19 -15 -26 -15
-8 0 -11 -6 -7 -16 4 -11 1 -15 -12 -12 -10 2 -20 -2 -22 -9 -3 -7 3 -10 15
-6 11 2 23 0 26 -6 4 -6 2 -11 -3 -11 -17 0 -13 -25 7 -43 11 -10 22 -13 31
-7 8 4 20 6 28 3 7 -3 13 0 13 7 0 6 5 8 11 4 6 -3 14 -2 18 3 4 7 15 7 31 1
l25 -9 -25 -14 c-18 -9 -29 -10 -38 -3 -13 12 -27 4 -27 -15 0 -7 -12 -13 -27
-15 -16 -2 -28 -8 -28 -13 0 -5 -9 -9 -20 -9 -12 0 -33 -12 -47 -26 -21 -21
-23 -28 -12 -35 11 -6 8 -9 -9 -9 -34 0 -70 28 -77 61 -5 22 -12 29 -31 29
-13 0 -24 4 -24 10 0 5 7 7 15 4 24 -10 17 7 -16 38 -17 16 -28 36 -25 43 4
12 0 12 -19 3 -24 -11 -34 -43 -16 -50 4 -1 11 -14 15 -28 4 -14 4 -20 -1 -14
-4 6 -23 10 -40 9 -21 -1 -33 3 -33 11 0 7 -8 10 -21 7 -12 -3 -18 -11 -15
-19 3 -7 -3 -18 -12 -23 -10 -6 -12 -11 -4 -11 6 0 12 -4 12 -10 0 -5 -7 -7
-16 -3 -11 4 -13 13 -9 33 4 18 1 31 -6 36 -9 5 -10 2 -6 -9 4 -12 2 -14 -10
-10 -11 4 -14 2 -9 -5 4 -7 2 -12 -3 -12 -23 0 -10 29 22 49 17 11 28 21 24
21 -12 0 15 25 35 33 19 7 52 52 46 65 -2 5 -15 5 -30 0z m532 -157 c0 -20 -4
-23 -29 -19 -25 4 -31 0 -37 -21 -4 -14 -8 -30 -8 -36 -1 -5 -11 -11 -23 -13
-30 -4 -29 -16 2 -30 14 -7 28 -19 32 -28 4 -12 7 -13 14 -3 11 18 21 6 13
-15 -4 -11 -14 -16 -25 -13 -10 3 -20 -1 -23 -9 -3 -8 -16 -14 -29 -14 -13 0
-29 -6 -36 -12 -8 -8 -11 -8 -8 -2 4 7 -1 18 -10 25 -15 12 -16 12 -11 -3 4
-10 1 -19 -10 -23 -9 -3 -18 -1 -20 4 -2 6 -17 11 -33 11 -22 0 -29 -5 -29
-20 0 -11 -5 -20 -11 -20 -5 0 -7 5 -3 11 3 6 1 15 -7 20 -11 6 -10 12 5 28
11 12 16 21 12 21 -4 0 -4 5 0 11 4 8 9 7 15 -2 7 -11 9 -11 9 -1 0 7 15 22
34 33 21 12 33 26 30 34 -8 21 16 29 30 9 9 -12 15 -14 20 -6 4 7 4 16 1 22
-3 6 1 7 9 4 11 -4 16 0 16 11 0 20 53 70 58 55 7 -20 20 -9 18 14 -3 21 -1
23 15 13 11 -7 19 -22 19 -36z m84 30 c15 -17 15 -19 1 -25 -9 -3 -27 -6 -41
-6 -22 0 -23 2 -12 25 13 30 29 32 52 6z m186 15 c0 -3 -4 -8 -10 -11 -5 -3
-10 -1 -10 4 0 6 5 11 10 11 6 0 10 -2 10 -4z m110 -110 c0 -2 -7 -7 -16 -10
-8 -3 -12 -2 -9 4 6 10 25 14 25 6z m39 -5 c9 -6 11 -15 6 -27 -8 -18 -8 -18
-12 -1 -3 9 -9 17 -14 17 -5 0 -9 5 -9 10 0 12 10 13 29 1z m-639 -25 c0 -3
-4 -8 -10 -11 -5 -3 -10 -1 -10 4 0 6 5 11 10 11 6 0 10 -2 10 -4z m-410 -40
c0 -3 -4 -8 -10 -11 -5 -3 -10 -1 -10 4 0 6 5 11 10 11 6 0 10 -2 10 -4z m695
-59 c-1 -17 -9 -22 -31 -24 -16 -1 -21 1 -11 3 22 7 22 24 1 24 -13 0 -14 3
-5 14 17 20 48 9 46 -17z m455 18 c16 -19 3 -19 -30 0 -24 13 -24 14 -4 15 12
0 27 -7 34 -15z m57 -21 c0 -7 -6 -10 -14 -7 -7 3 -13 8 -13 12 0 4 6 8 13 8
8 0 14 -6 14 -13z m-597 -3 c-8 -6 -17 -8 -21 -5 -4 2 -10 0 -14 -6 -3 -5 -11
-10 -18 -10 -6 0 -2 7 9 15 10 8 28 14 39 15 16 0 17 -2 5 -9z m515 -21 c3 -6
-1 -7 -9 -4 -18 7 -21 14 -7 14 6 0 13 -4 16 -10z m-395 -45 c10 -13 9 -15 -9
-15 -12 0 -21 6 -21 15 0 8 4 15 9 15 5 0 14 -7 21 -15z m450 1 c0 -3 -4 -8
-10 -11 -5 -3 -10 -1 -10 4 0 6 5 11 10 11 6 0 10 -2 10 -4z m-320 -110 c0 -2
-7 -7 -16 -10 -8 -3 -12 -2 -9 4 6 10 25 14 25 6z m40 -36 c10 0 22 -4 25 -10
8 -13 -7 -13 -40 0 -17 6 -23 14 -19 22 6 9 9 9 12 0 2 -7 12 -12 22 -12z
m-1386 -8 c2 -4 1 -13 -3 -20 -4 -8 -11 -5 -19 8 -10 16 -10 20 2 20 8 0 17
-4 20 -8z m1386 -28 c0 -8 -5 -12 -10 -9 -6 4 -8 11 -5 16 9 14 15 11 15 -7z
m-1379 -51 c-9 -16 -10 -14 -11 12 0 21 3 26 11 18 8 -8 8 -16 0 -30z m-296
-123 c3 -5 1 -10 -4 -10 -6 0 -11 5 -11 10 0 6 2 10 4 10 3 0 8 -4 11 -10z
m1160 -125 c0 -22 -14 -28 -34 -16 -12 8 -13 12 -1 26 16 20 35 14 35 -10z
m1063 -326 c11 0 12 -2 4 -6 -6 -2 -10 -9 -7 -13 3 -5 1 -11 -5 -15 -5 -3 -10
1 -10 10 0 11 -5 15 -15 11 -12 -4 -13 -2 -2 14 6 11 13 16 15 10 2 -5 11 -10
20 -11z m-328 -126 c0 -17 -18 -35 -24 -25 -3 6 -15 8 -26 5 -11 -3 -20 -1
-20 5 0 11 20 19 53 21 9 0 17 -2 17 -6z m55 -13 c4 -6 -5 -10 -19 -10 -14 0
-26 5 -26 10 0 6 9 10 19 10 11 0 23 -4 26 -10z m-980 -10 c3 -5 2 -10 -4 -10
-5 0 -13 5 -16 10 -3 6 -2 10 4 10 5 0 13 -4 16 -10z m103 -17 c-10 -2 -26 -2
-35 0 -10 3 -2 5 17 5 19 0 27 -2 18 -5z m612 -84 c0 -7 8 -18 18 -25 15 -13
14 -13 -8 -5 -25 8 -41 41 -21 41 6 0 11 -5 11 -11z m50 -73 c8 -4 20 -18 27
-31 10 -23 9 -25 -13 -25 -15 0 -24 6 -24 15 0 9 -9 15 -22 15 -31 0 -52 15
-43 29 6 11 43 10 75 -3z"/>
<path d="M1445 5679 c4 -5 1 -16 -5 -24 -15 -18 1 -20 18 -3 16 16 15 25 -4
32 -9 3 -12 2 -9 -5z"/>
<path d="M1384 5649 c-3 -6 -2 -15 3 -20 5 -5 14 0 21 11 10 17 10 20 -2 20
-8 0 -18 -5 -22 -11z"/>
<path d="M3028 5653 c7 -3 16 -2 19 1 4 3 -2 6 -13 5 -11 0 -14 -3 -6 -6z"/>
<path d="M6135 5650 c3 -5 8 -10 11 -10 2 0 4 5 4 10 0 6 -5 10 -11 10 -5 0
-7 -4 -4 -10z"/>
<path d="M6080 5605 c0 -27 9 -32 28 -13 8 8 9 15 1 25 -17 20 -29 15 -29 -12z"/>
<path d="M5410 5595 c0 -8 4 -15 10 -15 5 0 7 7 4 15 -4 8 -8 15 -10 15 -2 0
-4 -7 -4 -15z"/>
<path d="M6200 5570 c0 -5 10 -10 23 -10 18 0 19 2 7 10 -19 13 -30 13 -30 0z"/>
<path d="M2480 5540 c-8 -11 -20 -20 -27 -20 -7 0 -13 -4 -13 -9 0 -5 -22 -21
-50 -35 -27 -14 -87 -51 -132 -82 -57 -38 -84 -51 -87 -42 -4 13 -21 28 -32
28 -3 0 -4 -14 -1 -30 5 -34 -20 -70 -46 -70 -9 0 -40 -25 -69 -55 -40 -41
-54 -64 -59 -95 -8 -46 2 -51 36 -15 20 21 21 25 7 31 -9 3 -14 10 -11 15 3 5
13 5 25 -1 13 -8 19 -7 19 0 0 6 11 16 25 22 13 6 27 19 30 30 4 10 16 18 29
18 26 0 62 35 68 65 2 12 13 21 28 23 14 2 33 12 43 23 21 23 31 24 51 4 8 -9
17 -11 21 -6 3 6 12 8 20 4 10 -3 15 1 16 13 2 62 19 88 50 79 9 -3 33 8 54
25 23 18 49 30 67 30 22 0 29 4 25 15 -4 8 -2 17 4 21 6 3 13 -4 16 -16 4 -14
8 -17 13 -10 4 6 13 13 21 14 8 2 21 6 29 9 8 3 22 8 30 10 8 3 -3 7 -25 8
-22 1 -48 3 -57 4 -9 0 -20 4 -24 8 -16 16 -80 7 -94 -13z"/>
<path d="M1485 5520 c-3 -5 -1 -10 4 -10 6 0 11 5 11 10 0 6 -2 10 -4 10 -3 0
-8 -4 -11 -10z"/>
<path d="M1452 5464 c-7 -8 -12 -22 -10 -32 3 -14 6 -13 17 6 15 28 11 45 -7
26z"/>
<path d="M2610 5347 c0 -20 9 -25 31 -20 15 4 17 8 8 19 -15 18 -39 18 -39 1z"/>
<path d="M1381 5334 c-13 -7 -30 -27 -38 -45 -12 -29 -12 -35 1 -45 14 -10 14
-15 0 -52 -11 -27 -21 -39 -30 -35 -10 4 -14 -3 -14 -23 0 -16 -11 -51 -25
-78 -14 -27 -25 -54 -25 -59 0 -5 -11 -31 -24 -57 -21 -41 -22 -51 -11 -66 12
-17 14 -16 37 9 14 14 25 32 26 39 4 41 11 56 50 97 23 25 42 51 42 58 0 7 16
23 35 35 19 13 35 29 35 37 0 7 11 26 25 43 27 32 30 49 14 79 -10 20 -11 20
-42 -4 -31 -23 -33 -23 -51 -6 -19 18 -18 19 4 37 12 10 21 25 19 33 -3 12 -8
13 -28 3z"/>
<path d="M2485 5320 c-3 -6 1 -7 9 -4 18 7 21 14 7 14 -6 0 -13 -4 -16 -10z"/>
<path d="M2500 5299 c-29 -21 -17 -25 19 -5 13 7 20 16 15 19 -5 3 -21 -3 -34
-14z"/>
<path d="M2420 5301 c0 -12 29 -23 41 -15 18 10 9 24 -16 24 -14 0 -25 -4 -25
-9z"/>
<path d="M4885 5231 c-3 -6 -3 -11 1 -11 4 0 -1 -9 -11 -20 -15 -17 -16 -24
-7 -46 7 -13 12 -35 12 -47 0 -12 4 -17 8 -11 4 5 22 16 40 23 17 8 32 19 32
26 0 9 -43 71 -65 93 -2 2 -6 -1 -10 -7z"/>
<path d="M7013 5198 c7 -17 18 -33 24 -35 6 -2 4 11 -6 31 -20 44 -36 47 -18
4z"/>
<path d="M2630 5165 c-14 -8 -32 -17 -40 -20 -8 -4 -31 -15 -50 -25 -19 -10
-39 -18 -45 -17 -5 1 -11 -6 -13 -15 -4 -22 11 -23 31 -3 8 8 31 17 50 19 37
4 87 32 87 47 0 5 7 9 16 9 8 0 12 5 9 10 -8 13 -15 12 -45 -5z"/>
<path d="M1498 5135 c-3 -14 -2 -25 2 -25 4 0 12 11 18 25 9 20 9 25 -2 25 -8
0 -16 -11 -18 -25z"/>
<path d="M7074 5111 c11 -11 23 -21 28 -21 14 0 -1 19 -25 31 -22 12 -22 12
-3 -10z"/>
<path d="M1505 5060 c-10 -11 -14 -20 -9 -20 5 0 15 9 22 20 7 11 11 20 9 20
-2 0 -12 -9 -22 -20z"/>
<path d="M1915 5050 c-20 -39 -20 -41 15 -29 29 11 41 29 19 29 -6 0 -9 7 -5
15 10 27 -13 15 -29 -15z"/>
<path d="M2425 5061 c-3 -5 -1 -12 5 -16 5 -3 10 1 10 9 0 18 -6 21 -15 7z"/>
<path d="M4450 5055 c-8 -9 -8 -15 -2 -15 12 0 26 19 19 26 -2 2 -10 -2 -17
-11z"/>
<path d="M1456 5051 c-15 -23 -50 -30 -68 -13 -17 14 -18 13 -18 -15 0 -18 -6
-33 -15 -37 -8 -3 -15 -15 -15 -26 0 -12 -11 -49 -24 -83 -41 -106 -44 -121
-31 -134 13 -12 62 -6 71 8 3 5 12 9 20 9 23 0 16 -30 -9 -39 -13 -5 -34 -21
-47 -35 -14 -14 -32 -26 -41 -26 -17 0 -34 -32 -44 -85 -5 -23 -4 -26 4 -15 6
8 11 23 11 32 0 17 33 33 49 24 13 -9 141 118 141 140 0 30 13 42 45 40 25 -1
30 3 31 24 2 14 4 32 6 40 4 19 -24 19 -38 1 -21 -27 -14 69 8 118 10 24 17
46 14 49 -3 3 -6 2 -6 -2 0 -5 -8 2 -18 15 -14 16 -21 19 -26 10z m-36 -265
c0 -3 -4 -8 -10 -11 -5 -3 -10 -1 -10 4 0 6 5 11 10 11 6 0 10 -2 10 -4z"/>
<path d="M1947 5013 c-12 -11 -8 -23 8 -23 8 0 15 7 15 15 0 16 -12 20 -23 8z"/>
<path d="M6980 4966 c0 -2 7 -7 16 -10 8 -3 12 -2 9 4 -6 10 -25 14 -25 6z"/>
<path d="M7026 4951 c-3 -5 1 -11 9 -15 8 -3 15 -1 15 4 0 13 -18 22 -24 11z"/>
<path d="M1140 4939 c0 -5 5 -7 10 -4 6 3 10 8 10 11 0 2 -4 4 -10 4 -5 0 -10
-5 -10 -11z"/>
<path d="M1875 4940 c-3 -5 -1 -10 4 -10 6 0 11 5 11 10 0 6 -2 10 -4 10 -3 0
-8 -4 -11 -10z"/>
<path d="M2457 4934 c-9 -10 4 -34 19 -34 8 0 14 3 14 6 0 10 -27 33 -33 28z"/>
<path d="M1089 4824 c-38 -100 -46 -134 -31 -134 10 0 57 148 49 156 -4 4 -11
-6 -18 -22z"/>
<path d="M2362 4830 c-17 -27 -15 -35 4 -16 8 9 14 21 12 26 -2 6 -9 1 -16
-10z"/>
<path d="M1910 4630 c0 -6 -12 -22 -27 -35 -16 -13 -23 -24 -18 -24 14 0 65
46 65 59 0 5 -4 10 -10 10 -5 0 -10 -5 -10 -10z"/>
<path d="M1184 4612 c-6 -4 -17 -18 -24 -32 -18 -34 -40 -121 -29 -114 5 3 9
11 9 19 0 7 7 16 16 19 8 3 13 10 9 15 -3 6 4 15 15 21 11 6 19 16 17 23 -1 7
3 11 9 10 14 -3 13 39 -1 44 -5 1 -15 -1 -21 -5z"/>
<path d="M7350 4531 c0 -6 4 -13 10 -16 6 -3 7 1 4 9 -7 18 -14 21 -14 7z"/>
<path d="M1877 4335 c-7 -16 8 -29 23 -20 15 9 12 35 -4 35 -8 0 -16 -7 -19
-15z"/>
<path d="M7290 4330 c20 -13 33 -13 25 0 -3 6 -14 10 -23 10 -15 0 -15 -2 -2
-10z"/>
<path d="M6843 4258 c-2 -5 1 -8 7 -8 6 0 9 -4 5 -9 -10 -17 11 -20 54 -7 23
6 41 16 39 22 -4 11 -98 12 -105 2z"/>
<path d="M2205 4230 c-19 -7 -19 -7 2 -18 27 -15 63 -16 63 -2 0 6 -9 10 -19
10 -11 0 -21 4 -23 9 -1 4 -12 5 -23 1z"/>
<path d="M1 3675 c0 -300 3 -455 9 -445 5 8 10 24 10 36 0 11 8 38 19 60 23
48 36 131 23 147 -6 7 -7 64 -2 147 4 74 3 140 -1 145 -4 6 -11 55 -14 110 -4
55 -12 118 -17 140 -5 22 -13 58 -18 80 -4 22 -8 -164 -9 -420z"/>
<path d="M6960 4096 c0 -8 4 -17 8 -20 13 -8 35 11 28 23 -10 16 -36 14 -36
-3z"/>
<path d="M2460 4085 c7 -8 16 -15 21 -15 5 0 9 7 9 15 0 9 -9 15 -21 15 -18 0
-19 -2 -9 -15z"/>
<path d="M8170 4080 c0 -5 7 -10 16 -10 8 0 12 5 9 10 -3 6 -10 10 -16 10 -5
0 -9 -4 -9 -10z"/>
<path d="M6950 4050 c0 -5 5 -10 11 -10 5 0 7 5 4 10 -3 6 -8 10 -11 10 -2 0
-4 -4 -4 -10z"/>
<path d="M2330 4030 c-12 -8 -11 -10 8 -10 12 0 22 5 22 10 0 13 -11 13 -30 0z"/>
<path d="M6990 4030 c0 -5 5 -10 11 -10 5 0 7 5 4 10 -3 6 -8 10 -11 10 -2 0
-4 -4 -4 -10z"/>
<path d="M7025 4020 c3 -5 14 -10 24 -10 9 0 22 -5 28 -11 6 -6 17 -9 25 -6 7
3 -2 11 -24 21 -43 18 -62 21 -53 6z"/>
<path d="M2682 3954 c-16 -12 -16 -13 0 -14 22 0 48 10 48 19 0 12 -29 9 -48
-5z"/>
<path d="M2630 3848 c-16 -7 -20 -12 -12 -15 8 -3 21 2 30 11 19 18 17 19 -18
4z"/>
<path d="M3828 3633 c7 -3 16 -2 19 1 4 3 -2 6 -13 5 -11 0 -14 -3 -6 -6z"/>
<path d="M5505 3630 c3 -5 11 -10 16 -10 6 0 7 5 4 10 -3 6 -11 10 -16 10 -6
0 -7 -4 -4 -10z"/>
<path d="M5436 3607 c3 -10 9 -15 12 -12 3 3 0 11 -7 18 -10 9 -11 8 -5 -6z"/>
<path d="M6745 3610 c-3 -5 1 -10 10 -10 9 0 13 5 10 10 -3 6 -8 10 -10 10 -2
0 -7 -4 -10 -10z"/>
<path d="M5460 3571 c0 -6 4 -13 10 -16 6 -3 7 1 4 9 -7 18 -14 21 -14 7z"/>
<path d="M5480 3523 c1 -18 19 -35 29 -28 9 5 9 10 0 21 -12 15 -29 19 -29 7z"/>
<path d="M5550 3430 c0 -5 7 -10 15 -10 8 0 15 5 15 10 0 6 -7 10 -15 10 -8 0
-15 -4 -15 -10z"/>
<path d="M5620 3420 c0 -5 5 -10 11 -10 5 0 7 5 4 10 -3 6 -8 10 -11 10 -2 0
-4 -4 -4 -10z"/>
<path d="M5780 3426 c0 -2 7 -6 15 -10 8 -3 15 -1 15 4 0 6 -7 10 -15 10 -8 0
-15 -2 -15 -4z"/>
<path d="M5738 3413 c6 -2 18 -2 25 0 6 3 1 5 -13 5 -14 0 -19 -2 -12 -5z"/>
<path d="M6948 3388 c5 -5 16 -8 23 -6 8 3 3 7 -10 11 -17 4 -21 3 -13 -5z"/>
<path d="M7740 3358 c0 -9 14 -11 48 -8 12 1 22 -4 22 -10 0 -6 5 -8 10 -5 6
4 8 10 5 15 -6 10 -85 18 -85 8z"/>
<path d="M2190 3335 c-10 -12 -10 -15 4 -15 9 0 16 7 16 15 0 8 -2 15 -4 15
-2 0 -9 -7 -16 -15z"/>
<path d="M5645 3314 c8 -47 30 -90 38 -77 12 20 -6 94 -26 104 -18 10 -19 9
-12 -27z"/>
<path d="M7830 3320 c0 -5 5 -10 10 -10 6 0 10 -6 11 -12 0 -7 22 -27 48 -44
44 -28 47 -29 43 -9 -2 11 -25 35 -50 53 -50 34 -62 38 -62 22z"/>
<path d="M980 3309 c0 -5 5 -7 10 -4 6 3 10 8 10 11 0 2 -4 4 -10 4 -5 0 -10
-5 -10 -11z"/>
<path d="M7340 3300 c8 -5 20 -10 25 -10 6 0 3 5 -5 10 -8 5 -19 10 -25 10 -5
0 -3 -5 5 -10z"/>
<path d="M7920 3301 c0 -10 50 -45 56 -39 2 3 -10 14 -26 27 -17 12 -30 17
-30 12z"/>
<path d="M7000 3290 c0 -5 5 -10 11 -10 5 0 7 5 4 10 -3 6 -8 10 -11 10 -2 0
-4 -4 -4 -10z"/>
<path d="M9654 3254 c-10 -14 -33 -33 -53 -43 -32 -17 -50 -18 -156 -10 -66 4
-142 8 -168 8 -44 1 -47 -1 -38 -18 16 -29 -7 -451 -25 -472 -8 -8 -14 -23
-14 -32 0 -9 -8 -24 -18 -34 -37 -37 -152 -170 -152 -176 0 -4 -15 -31 -34
-60 -43 -66 -92 -171 -101 -214 -4 -18 -11 -35 -16 -38 -5 -4 -9 -31 -9 -62 0
-57 -29 -156 -59 -203 -9 -14 -22 -34 -29 -45 -7 -11 -32 -60 -57 -110 -25
-49 -60 -117 -80 -150 -19 -33 -35 -72 -35 -87 0 -15 -4 -29 -9 -32 -4 -3 -11
-41 -15 -85 -9 -108 -37 -171 -104 -235 -91 -86 -106 -97 -189 -143 -22 -12
-45 -29 -52 -37 -8 -9 -19 -16 -26 -16 -7 0 -18 -7 -26 -16 -7 -8 -31 -25 -53
-36 -40 -21 -46 -21 -266 -9 -124 6 -226 16 -228 21 -2 6 -12 10 -23 10 -10 0
-19 3 -19 8 0 4 -18 27 -40 52 -22 25 -40 50 -40 56 0 7 -6 14 -13 17 -8 3
-21 20 -30 39 -9 18 -27 50 -40 70 -14 20 -28 45 -32 57 -9 28 -23 27 -37 -4
-6 -14 -15 -25 -19 -25 -5 0 -14 -11 -21 -24 -14 -25 -173 -171 -210 -192 -24
-14 -46 -25 -88 -43 -14 -6 -38 -20 -55 -31 -16 -11 -39 -24 -50 -30 -45 -24
-67 -39 -91 -59 -13 -11 -26 -21 -29 -21 -2 0 -31 -17 -62 -37 -84 -55 -95
-61 -125 -73 -14 -6 -29 -18 -32 -26 -3 -8 -13 -14 -23 -14 -10 0 -29 -7 -43
-15 -14 -8 -43 -24 -65 -35 -22 -11 -47 -24 -55 -29 -27 -14 -65 -34 -80 -41
-103 -50 -251 -129 -276 -149 -15 -11 -31 -21 -36 -21 -8 0 -45 -15 -133 -55
-16 -7 -34 -14 -40 -16 -5 -1 -21 -10 -34 -20 -13 -11 -28 -19 -33 -19 -4 0
-27 -12 -51 -27 -64 -42 -80 -51 -104 -62 -13 -6 -42 -20 -65 -31 -23 -11 -48
-20 -55 -20 -8 0 -44 -14 -81 -31 -37 -16 -76 -34 -87 -39 -11 -5 -38 -12 -60
-15 -22 -3 -47 -10 -55 -15 -9 -6 832 -10 2228 -10 l2242 0 0 1640 c0 902 -2
1640 -5 1640 -2 0 -12 -12 -21 -26z"/>
<path d="M7120 3240 c0 -5 5 -10 10 -10 6 0 10 5 10 10 0 6 -4 10 -10 10 -5 0
-10 -4 -10 -10z"/>
<path d="M8050 3235 c7 -8 20 -15 29 -15 13 1 13 3 -3 15 -26 19 -42 19 -26 0z"/>
<path d="M3956 3194 c-4 -9 -4 -19 -1 -22 2 -3 7 3 11 12 4 9 4 19 1 22 -2 3
-7 -3 -11 -12z"/>
<path d="M8014 3165 c10 -8 24 -11 29 -8 6 4 2 10 -9 14 -31 12 -40 9 -20 -6z"/>
<path d="M1309 3133 l-34 -36 34 19 c18 10 36 25 38 32 11 26 -4 21 -38 -15z"/>
<path d="M7365 3150 c3 -5 10 -10 16 -10 5 0 9 5 9 10 0 6 -7 10 -16 10 -8 0
-12 -4 -9 -10z"/>
<path d="M2206 3125 c-13 -20 -22 -24 -38 -19 -16 5 -20 3 -15 -9 4 -11 0 -13
-14 -10 -10 3 -19 0 -19 -6 0 -6 -8 -11 -17 -11 -15 0 -16 -2 -3 -10 12 -8 12
-10 -3 -16 -15 -5 -15 -9 -5 -22 11 -13 10 -15 -5 -9 -23 9 -44 -2 -26 -13 9
-6 8 -12 -5 -25 -19 -20 -14 -33 6 -16 7 6 29 21 48 34 19 12 37 33 41 47 4
14 7 21 8 16 1 -5 9 -2 18 5 14 12 16 12 8 0 -6 -11 -4 -13 9 -8 10 4 20 7 22
7 2 0 4 8 4 18 0 9 18 28 40 42 40 25 49 41 10 20 -15 -8 -25 -8 -34 -1 -10 9
-18 5 -30 -14z"/>
<path d="M3940 3090 c0 -19 3 -21 12 -12 9 9 9 15 0 24 -9 9 -12 7 -12 -12z"/>
<path d="M6795 3070 c-3 -5 -1 -10 4 -10 6 0 11 5 11 10 0 6 -2 10 -4 10 -3 0
-8 -4 -11 -10z"/>
<path d="M1290 3059 c0 -5 5 -7 10 -4 6 3 10 8 10 11 0 2 -4 4 -10 4 -5 0 -10
-5 -10 -11z"/>
<path d="M5916 3041 c-3 -5 2 -11 12 -14 9 -2 26 -8 37 -12 15 -6 13 -2 -7 13
-29 24 -34 26 -42 13z"/>
<path d="M2225 3009 c-5 -20 -11 -29 -21 -25 -8 3 -14 1 -14 -4 0 -6 -7 -10
-15 -10 -8 0 -15 -4 -15 -9 0 -5 -6 -16 -12 -23 -34 -37 -59 -80 -54 -96 7
-20 46 -24 46 -5 0 6 5 15 12 19 7 4 8 3 4 -4 -3 -6 2 -16 13 -21 16 -9 25 -5
50 18 25 23 29 31 18 38 -13 8 -37 45 -37 58 0 3 4 4 8 1 5 -3 14 5 20 17 18
37 23 65 13 71 -5 4 -12 -8 -16 -25z m-92 -144 c-3 -9 -8 -14 -10 -11 -3 3 -2
9 2 15 9 16 15 13 8 -4z"/>
<path d="M3935 3020 c-7 -22 0 -40 16 -40 6 0 8 4 4 9 -3 5 -1 12 5 16 15 9
12 35 -4 35 -8 0 -17 -9 -21 -20z"/>
<path d="M2173 3013 c-15 -5 -17 -23 -4 -23 5 0 11 7 15 15 3 8 4 15 3 14 -1
0 -8 -3 -14 -6z"/>
<path d="M7650 3016 c0 -2 8 -10 18 -17 15 -13 16 -12 3 4 -13 16 -21 21 -21
13z"/>
<path d="M5910 3000 c0 -5 5 -10 10 -10 6 0 10 5 10 10 0 6 -4 10 -10 10 -5 0
-10 -4 -10 -10z"/>
<path d="M5958 2976 c9 -17 15 -35 13 -41 -1 -5 8 -1 20 10 12 11 19 14 15 8
-4 -7 -2 -13 3 -13 26 0 8 30 -28 47 l-40 20 17 -31z"/>
<path d="M6470 2990 c6 -11 15 -18 21 -14 6 4 6 11 -2 20 -17 21 -31 17 -19
-6z"/>
<path d="M8009 2993 c14 -27 31 -30 31 -6 0 9 -3 13 -7 10 -3 -4 -13 -1 -21 6
-13 10 -14 9 -3 -10z"/>
<path d="M6310 2991 c0 -4 13 -22 29 -39 25 -25 32 -28 41 -17 16 19 4 35 -26
35 -15 0 -24 6 -24 15 0 8 -4 15 -10 15 -5 0 -10 -4 -10 -9z"/>
<path d="M3786 2954 c-9 -24 -7 -27 9 -10 17 17 19 26 6 26 -5 0 -12 -7 -15
-16z"/>
<path d="M3948 2954 c-9 -8 3 -44 13 -38 11 7 12 44 1 44 -5 0 -11 -3 -14 -6z"/>
<path d="M4015 2949 c-7 -21 -13 -118 -7 -124 11 -10 29 51 27 88 -3 41 -12
58 -20 36z"/>
<path d="M1940 2936 c0 -8 -7 -16 -15 -20 -25 -9 -17 -21 15 -21 17 0 30 3 30
8 0 4 0 13 0 21 0 8 -7 16 -15 20 -9 3 -15 0 -15 -8z"/>
<path d="M3745 2899 c-11 -17 1 -21 15 -4 8 9 8 15 2 15 -6 0 -14 -5 -17 -11z"/>
<path d="M6098 2884 c3 -17 7 -22 12 -13 9 13 2 39 -10 39 -4 0 -5 -12 -2 -26z"/>
<path d="M1156 2884 c-8 -21 -8 -24 4 -24 6 0 10 6 10 14 0 8 6 17 13 19 7 4
6 6 -4 6 -9 1 -20 -6 -23 -15z"/>
<path d="M3845 2858 c-4 -13 -8 -25 -9 -28 0 -3 -12 -22 -25 -43 -26 -42 -23
-55 7 -36 28 18 52 62 52 98 0 36 -14 41 -25 9z"/>
<path d="M3703 2853 c-7 -3 -13 -14 -13 -25 0 -26 30 -20 40 8 8 21 0 26 -27
17z"/>
<path d="M3960 2847 c0 -10 -7 -32 -16 -49 -10 -18 -12 -33 -6 -37 5 -3 12
-16 16 -28 4 -13 12 -23 18 -23 5 0 7 7 4 16 -4 9 -1 23 6 32 10 12 10 16 1
19 -9 3 -9 10 -1 29 9 20 8 28 -5 42 -16 15 -17 15 -17 -1z"/>
<path d="M2230 2840 c0 -5 5 -10 10 -10 6 0 10 5 10 10 0 6 -4 10 -10 10 -5 0
-10 -4 -10 -10z"/>
<path d="M3714 2802 c-14 -9 -37 -52 -31 -58 7 -7 57 41 57 55 0 13 -10 14
-26 3z"/>
<path d="M6300 2779 c0 -5 -5 -7 -11 -3 -8 4 -8 0 0 -15 13 -24 23 -28 15 -6
-4 8 -1 15 5 15 6 0 11 5 11 10 0 6 -4 10 -10 10 -5 0 -10 -5 -10 -11z"/>
<path d="M3757 2743 c-12 -21 -18 -73 -8 -73 6 0 11 6 11 14 0 7 6 19 14 26 8
6 12 18 9 26 -6 15 -19 19 -26 7z"/>
<path d="M1366 2723 c-6 -14 -5 -15 5 -6 7 7 10 15 7 18 -3 3 -9 -2 -12 -12z"/>
<path d="M6220 2725 c0 -8 4 -15 10 -15 5 0 7 7 4 15 -4 8 -8 15 -10 15 -2 0
-4 -7 -4 -15z"/>
<path d="M0 1357 l0 -1357 2213 2 c1216 0 2140 4 2052 9 -210 10 -263 15 -278
27 -16 13 -69 20 -262 35 -88 7 -170 18 -182 25 -12 7 -37 12 -57 12 -19 0
-38 4 -41 10 -3 5 -18 10 -32 10 -28 0 -76 14 -130 37 -17 7 -46 16 -64 20
-18 3 -45 12 -59 20 -14 7 -28 13 -32 13 -8 0 -121 53 -148 70 -60 36 -171 99
-200 114 -58 29 -104 59 -156 100 -45 37 -72 61 -178 160 -22 20 -43 36 -48
36 -5 0 -26 16 -46 36 -20 20 -48 44 -62 52 -14 9 -29 22 -33 29 -4 7 -13 13
-18 13 -6 0 -36 20 -67 45 -31 25 -68 54 -82 65 -14 11 -31 20 -39 20 -7 0
-24 10 -37 22 -43 44 -191 158 -243 189 -21 13 -68 18 -202 24 -156 6 -179 9
-225 32 -29 13 -59 32 -68 41 -66 71 -87 91 -126 120 -40 29 -51 32 -119 33
-149 1 -250 19 -336 59 -35 16 -88 31 -127 35 -78 8 -121 38 -165 113 -27 46
-28 52 -28 194 l0 147 -37 36 c-21 19 -38 38 -38 43 0 4 -18 15 -40 25 -23 9
-43 24 -46 32 -4 8 -12 15 -18 15 -18 0 -70 59 -97 110 -13 25 -27 47 -31 50
-17 13 -32 104 -34 200 -1 91 -17 216 -30 229 -2 2 -4 -606 -4 -1352z"/>
<path d="M1350 2691 c0 -6 4 -12 10 -16 5 -3 7 -12 4 -20 -4 -8 0 -13 11 -11
8 1 15 5 15 9 0 11 -40 48 -40 38z"/>
<path d="M3686 2653 c-6 -14 -5 -15 5 -6 7 7 10 15 7 18 -3 3 -9 -2 -12 -12z"/>
<path d="M3720 2643 c-13 -15 -12 -16 4 -10 10 4 20 7 22 7 2 0 4 5 4 10 0 15
-13 12 -30 -7z"/>
<path d="M2025 2570 c4 -6 11 -8 16 -5 14 9 11 15 -7 15 -8 0 -12 -5 -9 -10z"/>
<path d="M1968 2512 c-36 -4 -35 -15 1 -29 21 -8 32 -8 40 0 23 23 6 35 -41
29z"/>
<path d="M2490 2479 c0 -5 5 -7 10 -4 6 3 10 8 10 11 0 2 -4 4 -10 4 -5 0 -10
-5 -10 -11z"/>
<path d="M1310 2460 c0 -5 5 -10 10 -10 6 0 10 5 10 10 0 6 -4 10 -10 10 -5 0
-10 -4 -10 -10z"/>
<path d="M3065 2410 c-3 -5 -2 -10 4 -10 5 0 13 5 16 10 3 6 2 10 -4 10 -5 0
-13 -4 -16 -10z"/>
</g>
</svg>
